<svg xmlns="http://www.w3.org/2000/svg" width="512" height="512" viewBox="256 256 512 512">
<g>
<path d="M 493.86 824.39 C490.34,825.11 488.01,824.79 488.69,823.69 C489.05,823.10 488.24,822.91 486.68,823.21 C485.06,823.52 484.30,823.33 484.69,822.70 C485.07,822.08 484.48,821.90 483.15,822.25 C481.97,822.56 481.22,822.45 481.49,822.02 C481.76,821.58 480.52,820.47 478.74,819.55 C472.99,816.59 469.34,813.49 469.81,811.97 C470.07,811.16 469.92,810.83 469.49,811.23 C469.06,811.63 467.59,810.73 466.23,809.23 C464.88,807.73 464.13,807.17 464.57,808.00 C465.27,809.29 465.15,809.31 463.70,808.14 C462.78,807.39 462.26,806.39 462.55,805.92 C462.84,805.44 461.94,804.77 460.54,804.42 C459.14,804.07 458.00,803.35 458.00,802.82 C458.00,801.47 455.29,798.91 454.20,799.23 C453.70,799.38 451.50,797.70 449.31,795.50 C447.12,793.30 444.69,791.36 443.91,791.20 C443.14,791.03 442.00,790.24 441.39,789.45 C440.78,788.65 439.88,788.00 439.39,787.99 C438.90,787.99 437.43,786.41 436.12,784.49 C434.81,782.57 433.36,781.00 432.88,781.00 C431.21,781.00 428.00,777.53 428.00,775.72 C428.00,774.71 427.55,774.16 427.00,774.50 C426.45,774.84 426.00,774.61 426.00,774.00 C426.00,773.39 425.55,773.16 425.00,773.50 C424.45,773.84 424.00,773.59 424.00,772.95 C424.00,772.31 423.33,772.05 422.50,772.36 C421.59,772.71 421.00,772.36 421.00,771.48 C421.00,770.67 420.10,769.45 419.00,768.77 C417.90,768.08 416.99,766.61 416.98,765.51 C416.97,763.85 416.80,763.76 416.00,765.00 C415.17,766.28 415.03,766.25 415.02,764.75 C415.01,763.79 414.29,763.00 413.43,763.00 C411.10,763.00 408.72,760.19 409.27,758.09 C409.63,756.69 409.30,756.37 407.87,756.74 C405.80,757.28 405.26,755.47 407.25,754.66 C407.98,754.37 407.74,754.12 406.69,754.08 C405.70,754.04 405.16,753.56 405.49,753.01 C405.83,752.46 405.47,752.27 404.68,752.57 C403.90,752.87 403.01,752.46 402.70,751.65 C402.39,750.85 400.75,749.89 399.07,749.51 C396.95,749.05 395.81,748.09 395.39,746.43 C395.06,745.10 394.38,744.26 393.89,744.57 C393.40,744.87 393.00,744.59 393.00,743.95 C393.00,743.31 392.33,743.05 391.50,743.36 C390.67,743.68 390.00,743.55 390.00,743.09 C390.00,742.62 389.10,742.00 388.00,741.71 C386.90,741.42 386.00,740.64 386.00,739.98 C386.00,739.26 386.81,738.98 388.00,739.29..." fill="#010101"/>
<path d="M 493.86 824.39 C496.15,823.92 496.17,823.84 494.44,821.93 C493.15,820.50 492.95,819.65 493.74,818.86 C495.07,817.53 497.00,818.57 497.00,820.62 C497.00,821.44 497.45,821.84 498.00,821.50 C498.55,821.16 499.00,821.38 499.00,822.00..." fill="#5B5B5B"/>
</g>
</svg>
