<svg xmlns="http://www.w3.org/2000/svg" width="685" height="668" viewBox="0 0 685 668">
<g>
<path d="M 410.00 603.04 C355.02,605.87 311.87,601.21 269.00,587.82 C243.97,580.00 220.91,570.14 204.97,560.43 C162.93,534.82 135.14,506.68 114.17,468.50 C105.97,453.59 106.06,453.68 99.89,452.24 C78.99,447.36 61.85,426.94 52.27,395.50 C47.33,379.31 45.90,369.12 45.92,350.32 C45.95,326.37 48.11,313.20 55.16,294.05 C58.11,286.04 59.21,283.76 65.12,273.27 C67.31,269.37 67.38,268.84 66.00,266.52 C65.18,265.14 60.90,258.28 56.50,251.27 C32.91,213.72 15.83,176.19 8.38,145.50 C3.43,125.15 2.79,120.44 2.68,104.00 C2.56,85.15 3.90,77.45 9.91,62.50 C20.01,37.39 39.70,17.36 62.50,9.00 C63.60,8.60 65.62,7.79 67.00,7.20 C69.92,5.96 73.15,5.38 85.78,3.82 C92.83,2.95 96.91,2.97 102.78,3.87 C115.12,5.76 116.99,6.17 117.57,7.11 C117.87,7.60 119.00,8.00 120.07,8.00 C122.05,8.00 122.69,8.25 129.00,11.53 C138.03,16.23 138.86,16.86 148.00,26.00 C156.53,34.53 162.06,43.33 165.28,53.50 C167.25,59.71 167.50,62.65 167.50,79.50 L 167.50 98.50 L 163.74 108.00 C159.31,119.21 152.56,128.79 144.20,135.76 C134.76,143.61 129.06,146.45 113.43,151.09 C109.43,152.28 96.50,152.26 92.57,151.06 C90.88,150.55 87.70,149.62 85.50,149.00 C83.30,148.38 80.87,147.61 80.10,147.30 C78.98,146.85 78.83,147.53 79.34,150.71 C79.89,154.17 80.89,156.95 84.99,166.50 C91.59,181.86 107.09,214.13 112.62,224.00 C114.00,226.48 115.85,230.19 116.72,232.25 C117.59,234.31 118.71,236.00 119.21,236.00 C119.71,236.00 122.13,231.61 124.59,226.25 C142.02,188.27 167.92,154.76 197.12,132.42 C207.25,124.67 223.65,113.00 224.41,113.00 C224.71,113.00 227.33,111.51 230.23,109.68 C233.13,107.86 237.07,105.74 239.00,104.98 C240.93,104.23 245.38,102.12 248.89,100.30 C252.41,98.49 256.09,97.00 257.08,97.00 C258.07,97.00 259.16,96.55 259.50,96.00 C259.84,95.45 260.75,95.00 261.52,95.00 C262.29,95.00 266.43,92.61 270.71,89.69 C281.20,82.56 296.91,75.10 303.27,74.24 C305.35,73.96 307.29,73.34 307.58,72.87 C307.88,72.39 309.41,72.00 311.00,72.00 C312.59,72.00 314.16,71.55 314.50,71.00 C314.84,70.45 316.47,70.00 318.12,70.00 C319.78,70.00 322.07,69.50 323.21,68.89 C326.00,67.40 345.95,65.53 359.00,65.55 C371.18,65.56 389.24,67.33 393.32,68.91 C394.86,69.51 397.42,70.00 399.01,70.00 C400.59,70.00 402.16,70.45 402.50,71.00 C402.84,71.55 404.64,72.00 406.50,72.00 C408.36,72.00 410.16,72.45 410.50,73.00 C410.84,73.55 412.00,74.00 413.07,74.00 C414.15,74.00 415.81,74.43 416.76,74.95 C417.72,75.47 420.30,76.65 422.50,77.57 C437.19,83.70 451.57,92.71 458.95,100.40 C460.90,102.44 463.37,104.00 464.64,104.00 C465.87,104.00 467.11,104.36 467.38,104.80 C467.65,105.24 470.17,106.23 472.97,106.99 C475.78,107.76 478.56,108.97 479.16,109.69 C479.76,110.41 481.06,111.00 482.06,111.00 C483.06,111.00 484.16,111.45 484.50,112.00 C484.84,112.55 485.99,113.00 487.06,113.00 C488.13,113.00 489.00,113.40 489.00,113.88 C489.00,114.37 489.79,115.02 490.75,115.33 C494.60,116.56 519.82,132.38 524.68,136.61 C525.87,137.65 528.89,140.07 531.37,142.00 C538.25,147.33 556.88,166.52 563.89,175.50 C567.33,179.90 570.85,184.37 571.72,185.43 C579.19,194.61 597.05,229.94 601.97,245.30 C602.64,247.39 603.70,248.93 604.32,248.73 C604.95,248.52 609.32,239.38 614.04,228.42 C618.76,217.47 623.39,207.06 624.31,205.30 C626.55,201.05 626.44,198.71 623.89,196.40 C622.73,195.36 620.61,192.25 619.18,189.50 C616.93,185.19 616.57,183.25 616.57,175.50 C616.57,167.63 616.91,165.84 619.32,161.21 C622.75,154.63 627.80,148.99 632.16,146.89 C634.00,146.00 636.81,144.65 638.40,143.89 C641.92,142.20 656.66,142.02 660.10,143.62 C661.42,144.23 663.85,145.34 665.50,146.09 C674.04,149.94 680.81,158.36 683.01,167.87 C685.55,178.82 681.78,192.22 673.98,200.02 C670.06,203.94 661.38,209.00 658.57,209.00 C656.78,209.00 655.40,211.36 654.13,216.62 C653.32,219.95 651.52,226.67 647.99,239.50 C647.54,241.15 644.62,251.50 641.51,262.50 C638.39,273.50 635.65,283.40 635.40,284.50 C635.16,285.60 636.06,288.30 637.40,290.50 C647.58,307.13 652.13,318.01 655.62,334.00 C658.46,347.05 658.25,381.72 655.24,395.50 C648.16,427.93 633.92,450.00 612.23,462.15 C608.23,464.39 607.14,465.69 605.12,470.65 C599.99,483.27 585.89,510.93 580.47,519.00 C568.76,536.42 553.25,551.83 533.50,565.64 C502.40,587.40 459.10,600.51 410.00,603.04 ZM 358.50 581.85 C393.24,583.93 422.66,582.20 452.84,576.32 L 461.17 574.69 L 472.36 563.60 C493.34,542.78 509.29,517.48 519.24,489.19 L 522.50 479.91 L 548.50 465.67 C562.80,457.84 577.67,449.54 581.54,447.23 L 588.59 443.02 L 590.26 434.76 C595.44,409.15 597.41,383.75 596.73,351.22 C595.94,313.35 591.77,287.15 581.58,256.00 C564.80,204.69 533.51,164.65 490.00,138.83 C475.11,129.99 457.33,122.49 459.46,125.94 C459.79,126.46 461.38,133.32 463.00,141.19 C470.77,178.84 469.42,215.96 458.87,254.65 L 455.83 265.81 L 443.66 266.51 C436.64,266.91 425.45,266.73 417.19,266.08 C402.90,264.96 379.62,262.28 377.25,261.48 C376.56,261.25 376.00,259.76 376.00,258.16 C376.00,253.18 371.93,230.89 369.50,222.50 C356.46,177.60 331.82,141.57 300.99,122.33 C294.67,118.39 287.40,114.15 284.83,112.92 L 280.17 110.68 L 272.33 113.42 C253.90,119.85 224.47,136.77 209.06,149.78 C183.16,171.65 160.79,200.09 147.95,227.46 C147.80,227.78 147.65,228.10 147.51,228.41 C143.26,237.47 141.92,240.32 142.82,241.64 C143.27,242.29 144.26,242.58 145.71,243.05 C156.60,246.57 164.51,252.18 172.40,261.97 C182.52,274.54 188.34,287.13 192.96,306.50 C194.14,311.45 195.52,316.80 196.02,318.39 C196.52,319.99 196.77,332.14 196.56,345.39 C196.25,365.44 195.83,371.02 194.09,378.50 C189.31,398.96 181.78,416.76 173.00,428.33 C170.15,432.08 167.99,435.33 168.21,435.54 C168.42,435.75 175.50,438.01 183.94,440.55 C192.39,443.09 201.14,446.02 203.40,447.05 C205.65,448.08 212.13,450.75 217.78,452.97 C232.76,458.85 257.15,471.49 259.18,474.42 C259.56,474.96 262.20,482.17 265.05,490.45 C274.58,518.11 285.28,542.71 297.23,564.44 C301.45,572.13 303.07,574.19 305.49,574.97 C311.00,576.75 343.30,580.94 358.50,581.85 ZM 404.30 253.91 C408.26,254.38 419.59,254.70 429.47,254.63 L 447.45 254.50 L 449.77 245.50 C454.32,227.82 456.24,211.90 456.34,191.00 C456.40,180.13 455.86,167.07 455.13,161.50 C453.44,148.50 447.71,126.15 444.09,118.39 C441.50,112.86 440.43,111.75 432.53,106.49 C412.28,93.02 387.36,86.01 359.63,86.00 C343.89,86.00 328.68,88.15 316.03,92.18 C305.79,95.44 293.00,101.01 293.00,102.20 C293.00,102.60 294.01,103.47 295.25,104.12 C306.71,110.19 321.94,122.04 332.51,133.11 C360.32,162.22 376.22,195.35 386.21,244.98 L 387.51 251.46 L 392.31 252.26 C394.95,252.70 400.35,253.45 404.30,253.91 ZM 79.62 251.65 L 85.00 259.80 L 88.25 256.75 C90.04,255.06 94.29,252.38 97.70,250.77 L 103.91 247.85 L 98.91 238.68 C78.27,200.79 63.66,167.85 56.03,142.00 C45.11,105.01 49.18,74.87 67.31,58.46 C75.39,51.15 82.03,48.65 91.81,49.26 C100.22,49.78 105.11,52.50 110.62,59.72 C115.17,65.69 116.81,75.69 114.53,83.53 C112.67,89.93 106.48,97.46 101.28,99.65 C92.23,103.45 78.92,99.01 75.89,91.18 C73.87,85.95 79.22,83.20 85.00,86.50 C86.38,87.29 89.35,87.95 91.62,87.96 C99.14,88.03 103.71,81.99 102.73,73.27 C101.70,64.13 92.86,59.52 83.72,63.35 C79.17,65.25 73.31,72.13 69.64,79.88 C66.78,85.90 66.52,87.29 66.70,95.27 C66.96,106.52 70.11,114.11 77.12,120.42 C85.07,127.57 87.83,128.50 101.00,128.50 C111.85,128.50 112.87,128.32 119.00,125.36 C132.39,118.89 142.24,105.81 145.58,90.05 C150.79,65.46 138.83,39.42 117.15,28.14 C94.36,16.29 69.84,19.98 48.72,38.45 C25.15,59.06 16.59,91.32 24.35,130.29 C31.13,164.29 51.55,209.14 79.62,251.65 ZM 516.70 428.96 C502.52,432.03 489.27,427.33 477.79,415.16 C466.02,402.69 460.84,388.00 460.79,367.00 C460.73,342.38 469.12,322.33 486.05,306.66 C496.03,297.42 503.21,294.56 516.52,294.53 C525.79,294.50 527.03,294.74 533.02,297.69 C548.13,305.13 558.20,319.03 562.51,338.40 C565.14,350.21 564.17,371.49 560.51,382.50 C552.46,406.67 535.22,424.95 516.70,428.96 ZM 275.50 567.51 C281.00,569.30 285.62,570.44 285.77,570.07 C285.92,569.69 283.17,563.33 279.66,555.94 C270.47,536.61 261.52,514.82 255.42,497.00 L 250.11 481.50 L 239.81 475.78 C223.56,466.75 199.99,457.48 176.00,450.67 L 174.37 450.20 C159.21,445.90 155.86,444.95 152.92,445.68 C151.98,445.91 151.09,446.32 149.87,446.84 C147.34,447.92 141.84,449.36 137.64,450.04 C133.44,450.72 130.00,451.68 130.00,452.18 C130.00,453.54 138.75,468.55 143.88,476.00 C157.90,496.35 181.82,519.65 202.50,533.10 C204.70,534.53 208.75,537.16 211.50,538.94 C224.66,547.49 253.67,560.43 275.50,567.51 ZM 98.24 429.89 C103.71,432.60 108.16,432.56 113.76,429.76 C125.67,423.82 136.78,402.77 142.68,375.00 C144.99,364.16 145.27,326.70 143.13,315.00 C138.59,290.13 128.94,270.57 117.83,263.70 C108.15,257.72 101.57,259.30 91.67,269.99 C85.41,276.75 84.63,279.00 88.55,279.00 C94.86,279.00 101.88,285.80 107.85,297.73 C114.69,311.39 118.01,327.00 117.98,345.36 C117.93,380.43 106.37,410.39 90.92,415.53 C88.22,416.42 86.00,417.51 86.00,417.94 C86.00,419.81 94.35,427.97 98.24,429.89 ZM 359.60 388.44 C359.25,389.85 358.39,391.00 357.70,391.00 C357.01,391.00 353.75,388.27 350.47,384.94 C328.94,363.10 296.85,355.50 267.00,365.17 C258.20,368.03 247.57,373.40 241.41,378.11 C238.61,380.25 236.02,382.00 235.66,382.00 C234.10,382.00 235.25,377.76 238.67,370.93 C248.63,351.02 270.44,338.91 296.37,338.88 C307.03,338.87 311.82,339.64 321.25,342.90 C324.41,344.00 327.00,344.57 327.00,344.17 C327.00,343.19 314.74,331.35 308.36,326.17 C302.05,321.05 288.73,313.91 280.00,310.98 C275.65,309.51 269.70,308.58 262.00,308.15 C255.32,307.77 250.54,307.08 250.60,306.50 C250.65,305.95 252.11,304.67 253.84,303.66 C262.76,298.45 280.45,297.49 295.60,301.38 C315.04,306.37 332.74,317.85 348.41,335.64 C359.68,348.44 364.15,352.00 368.98,352.00 C373.14,352.00 374.68,350.67 377.90,344.25 C379.08,341.91 380.46,340.00 380.98,340.00 C382.90,340.00 384.07,347.59 382.95,352.79 C380.61,363.69 372.38,371.00 362.43,371.00 C358.81,371.00 357.91,371.32 358.34,372.43 C359.39,375.18 360.24,385.91 359.60,388.44 ZM 127.24 437.24 C129.61,438.87 140.78,437.34 146.31,434.64 C154.79,430.49 171.00,412.29 171.00,406.92 C171.00,405.93 171.44,404.85 171.97,404.52 C173.60,403.51 177.13,394.62 176.65,392.75 C176.39,391.79 176.54,391.22 176.98,391.48 C177.41,391.75 178.22,390.16 178.79,387.94 C179.65,384.52 179.60,384.09 178.40,385.08 C177.28,386.01 177.00,385.87 177.02,384.37 C177.02,383.34 177.47,381.83 178.00,381.00 C178.81,379.75 178.97,379.83 178.98,381.47 C179.02,385.50 181.79,379.68 182.99,373.06 C188.57,342.28 184.44,307.78 172.26,283.50 C168.16,275.32 166.75,273.38 159.52,265.99 C151.59,257.88 144.56,254.62 134.01,254.15 L 125.52 253.77 L 130.21 258.79 C140.28,269.55 146.43,281.91 151.45,301.45 C157.03,323.17 158.27,342.41 155.51,364.54 C153.72,378.89 153.61,382.15 155.00,380.00 C155.53,379.17 155.98,379.01 155.98,379.63 C155.99,380.25 158.02,381.27 160.50,381.89 C162.97,382.52 164.92,383.36 164.84,383.76 C164.69,384.49 165.36,386.55 167.03,390.50 C169.16,395.53 169.05,396.54 166.18,398.24 C163.51,399.81 163.27,399.80 161.76,398.03 C160.88,397.00 159.63,395.18 158.99,393.98 C158.24,392.58 157.18,391.98 155.99,392.29 C154.62,392.65 154.31,392.36 154.77,391.17 C155.31,389.75 155.20,389.74 153.80,391.03 C152.92,391.84 152.42,392.84 152.67,393.26 C152.92,393.67 152.42,394.72 151.56,395.58 C150.70,396.44 149.99,398.12 149.98,399.32 C149.97,401.09 149.79,401.22 149.00,400.00 C148.22,398.79 148.03,398.93 148.02,400.75 C148.01,401.99 148.04,403.29 148.09,403.64 C148.13,403.99 147.65,404.60 147.02,404.99 C146.39,405.38 145.76,406.33 145.62,407.10 C144.81,411.79 133.86,429.04 128.60,433.93 C126.63,435.76 126.29,436.58 127.24,437.24 ZM 79.02 402.37 C85.49,407.80 91.33,404.75 97.35,392.80 C107.80,372.06 110.02,338.11 102.59,313.00 C100.12,304.66 94.66,294.76 91.23,292.41 C88.62,290.62 87.13,290.36 82.86,290.92 C81.33,291.12 75.08,298.54 73.08,302.55 C71.87,304.97 69.68,311.57 68.21,317.23 C65.70,326.85 65.53,328.87 65.55,349.00 C65.58,368.23 65.82,371.45 67.91,379.50 C70.74,390.43 74.83,398.83 79.02,402.37 ZM 488.00 565.24 C488.00,566.41 488.21,566.33 499.45,561.07 C528.62,547.41 551.47,527.09 566.67,501.25 C574.43,488.08 585.98,461.65 584.59,460.26 C584.16,459.83 564.55,469.92 543.60,481.34 L 531.70 487.83 L 527.54 498.68 C519.52,519.56 506.63,542.16 494.36,556.86 C490.86,561.05 488.00,564.82 488.00,565.24 ZM 606.00 435.65 C606.00,438.67 606.22,438.95 607.85,438.08 C612.74,435.46 621.25,424.44 625.94,414.65 C640.59,384.04 640.39,344.95 625.42,313.40 C622.18,306.58 610.17,292.00 607.78,292.00 C606.55,292.00 607.13,298.45 609.63,312.50 C611.11,320.84 611.41,328.57 611.45,359.00 C611.50,395.34 610.85,405.97 607.45,424.36 C606.65,428.68 606.00,433.76 606.00,435.65 ZM 417.50 497.50 C408.79,499.32 394.57,499.29 386.00,497.43 C377.85,495.67 363.36,488.69 355.50,482.74 C349.71,478.36 340.72,469.46 336.31,463.72 C334.42,461.27 333.72,461.02 330.29,461.57 C324.76,462.45 318.51,460.45 313.94,456.33 C309.27,452.10 308.47,448.47 312.57,450.02 C316.35,451.46 325.70,451.21 328.80,449.58 C330.28,448.80 333.28,446.33 335.45,444.08 C339.58,439.82 344.24,438.64 346.80,441.20 C348.59,442.99 348.25,447.58 346.01,451.97 L 344.03 455.87 L 349.73 460.95 C352.86,463.74 358.37,467.76 361.97,469.88 C389.24,485.93 419.13,486.00 442.50,470.06 C448.00,466.31 454.00,468.38 454.00,474.04 C454.00,480.47 432.31,494.41 417.50,497.50 ZM 475.28 286.60 C470.86,288.52 470.26,288.41 466.92,285.08 C462.57,280.72 462.94,276.66 468.34,269.36 C478.59,255.53 497.04,245.03 514.53,243.06 C526.70,241.69 539.88,244.72 545.74,250.22 C550.15,254.37 548.94,254.95 536.25,254.77 C515.23,254.46 502.49,260.35 485.00,278.47 C481.42,282.17 477.05,285.83 475.28,286.60 ZM 515.44 366.17 C524.34,370.34 534.20,366.53 539.48,356.89 C544.46,347.80 543.26,338.33 536.14,330.66 C532.32,326.54 528.76,325.00 523.11,325.00 C516.79,325.00 513.35,326.31 509.16,330.31 C505.05,334.24 503.47,337.26 502.63,342.76 C501.23,351.88 506.85,362.15 515.44,366.17 ZM 641.00 190.91 C645.13,193.32 652.56,193.64 657.28,191.62 C671.21,185.66 671.75,166.08 658.19,158.70 C651.39,155.00 646.78,155.14 640.53,159.25 C634.05,163.52 631.53,167.91 631.53,175.01 C631.53,179.54 632.07,181.28 634.52,184.70 C636.16,187.00 639.08,189.79 641.00,190.91 ZM 430.46 444.56 C421.59,448.91 409.23,448.71 400.17,444.09 C392.39,440.12 392.04,436.30 399.66,438.60 C410.60,441.89 422.30,439.44 429.62,432.32 C434.74,427.35 435.87,423.98 433.60,420.51 C428.82,413.21 417.41,411.56 405.75,416.48 C403.14,417.58 403.53,414.79 406.36,412.13 C412.86,406.02 426.70,404.25 435.60,408.39 C451.28,415.70 448.43,435.77 430.46,444.56 ZM 616.72 271.77 C618.73,273.57 620.85,274.88 621.42,274.69 C621.99,274.50 623.30,271.68 624.33,268.42 C625.36,265.17 626.59,261.60 627.08,260.50 C627.57,259.40 628.39,256.70 628.91,254.50 C630.06,249.69 637.01,226.88 639.89,218.50 C641.02,215.20 641.96,211.54 641.98,210.36 C642.00,208.29 639.60,206.51 638.07,207.46 C637.22,207.98 633.92,215.91 621.59,247.00 L 613.06 268.50 ZM 482.97 393.78 C488.40,397.41 494.76,394.87 498.35,387.64 C503.19,377.90 493.64,367.20 483.78,371.32 C474.28,375.29 473.83,387.67 482.97,393.78 ZM 159.58 393.13 C160.21,394.15 160.45,394.15 160.79,393.14 C161.27,391.69 160.29,390.37 159.40,391.27 C159.07,391.60 159.15,392.44 159.58,393.13 Z" fill="rgb(25,6,37)"/>
<path d="M 358.50 581.85 C343.30,580.94 311.00,576.75 305.49,574.97 C303.07,574.19 301.45,572.13 297.23,564.44 C285.28,542.71 274.58,518.11 265.05,490.45 C262.20,482.17 259.56,474.96 259.18,474.42 C257.15,471.49 232.76,458.85 217.78,452.97 C212.13,450.75 205.65,448.08 203.40,447.05 C201.14,446.02 192.39,443.09 183.94,440.55 C175.50,438.01 168.42,435.75 168.21,435.54 C167.99,435.33 170.15,432.08 173.00,428.33 C181.78,416.76 189.31,398.96 194.09,378.50 C195.83,371.02 196.25,365.44 196.56,345.39 C196.77,332.14 196.52,319.99 196.02,318.39 C195.52,316.80 194.14,311.45 192.96,306.50 C188.34,287.13 182.52,274.54 172.40,261.97 C164.51,252.18 156.60,246.57 145.71,243.05 C144.26,242.58 143.27,242.29 142.82,241.64 C141.92,240.32 143.26,237.47 147.51,228.41 C147.65,228.10 147.80,227.78 147.95,227.46 C160.79,200.09 183.16,171.65 209.06,149.78 C224.47,136.77 253.90,119.85 272.33,113.42 L 280.17 110.68 L 284.83 112.92 C287.40,114.15 294.67,118.39 300.99,122.33 C331.82,141.57 356.46,177.60 369.50,222.50 C371.93,230.89 376.00,253.18 376.00,258.16 C376.00,259.76 376.56,261.25 377.25,261.48 C379.62,262.28 402.90,264.96 417.19,266.08 C425.45,266.73 436.64,266.91 443.66,266.51 L 455.83 265.81 L 458.87 254.65 C469.42,215.96 470.77,178.84 463.00,141.19 C461.38,133.32 459.79,126.46 459.46,125.94 C459.08,125.33 459.34,125.06 460.10,125.09 C459.45,125.34 459.59,126.27 460.41,129.07 C461.40,132.41 462.50,133.64 466.56,135.89 C499.06,153.90 530.49,188.07 549.55,226.09 C556.32,239.62 564.90,260.35 566.87,268.00 C567.51,270.48 568.71,274.98 569.55,278.00 C577.99,308.66 580.47,331.76 579.70,372.68 C579.13,403.04 577.80,417.14 573.52,438.31 C572.13,445.15 571.00,451.06 571.00,451.44 C571.00,452.64 575.27,450.88 582.04,446.88 L 588.59 443.02 L 581.54 447.23 C577.67,449.54 562.80,457.84 548.50,465.67 L 522.50 479.91 L 519.24 489.19 C509.29,517.48 493.34,542.78 472.36,563.60 L 461.17 574.69 L 452.84 576.32 C422.66,582.20 393.24,583.93 358.50,581.85 ZM 516.70 428.96 C535.22,424.95 552.46,406.67 560.51,382.50 C564.17,371.49 565.14,350.21 562.51,338.40 C558.20,319.03 548.13,305.13 533.02,297.69 C527.03,294.74 525.79,294.50 516.52,294.53 C503.21,294.56 496.03,297.42 486.05,306.66 C469.12,322.33 460.73,342.38 460.79,367.00 C460.84,388.00 466.02,402.69 477.79,415.16 C489.27,427.33 502.52,432.03 516.70,428.96 ZM 359.60 388.44 C360.24,385.91 359.39,375.18 358.34,372.43 C357.91,371.32 358.81,371.00 362.43,371.00 C372.38,371.00 380.61,363.69 382.95,352.79 C384.07,347.59 382.90,340.00 380.98,340.00 C380.46,340.00 379.08,341.91 377.90,344.25 C374.68,350.67 373.14,352.00 368.98,352.00 C364.15,352.00 359.68,348.44 348.41,335.64 C332.74,317.85 315.04,306.37 295.60,301.38 C280.45,297.49 262.76,298.45 253.84,303.66 C252.11,304.67 250.65,305.95 250.60,306.50 C250.54,307.08 255.32,307.77 262.00,308.15 C269.70,308.58 275.65,309.51 280.00,310.98 C288.73,313.91 302.05,321.05 308.36,326.17 C314.74,331.35 327.00,343.19 327.00,344.17 C327.00,344.57 324.41,344.00 321.25,342.90 C311.82,339.64 307.03,338.87 296.37,338.88 C270.44,338.91 248.63,351.02 238.67,370.93 C235.25,377.76 234.10,382.00 235.66,382.00 C236.02,382.00 238.61,380.25 241.41,378.11 C247.57,373.40 258.20,368.03 267.00,365.17 C296.85,355.50 328.94,363.10 350.47,384.94 C353.75,388.27 357.01,391.00 357.70,391.00 C358.39,391.00 359.25,389.85 359.60,388.44 ZM 127.24 437.24 C126.29,436.58 126.63,435.76 128.60,433.93 C133.86,429.04 144.81,411.79 145.62,407.10 C145.76,406.33 146.39,405.38 147.02,404.99 C147.65,404.60 148.13,403.99 148.09,403.64 C148.04,403.29 148.01,401.99 148.02,400.75 C148.03,398.93 148.22,398.79 149.00,400.00 C149.79,401.22 149.97,401.09 149.98,399.32 C149.99,398.12 150.70,396.44 151.56,395.58 C152.42,394.72 152.92,393.67 152.67,393.26 C152.42,392.84 152.92,391.84 153.80,391.03 C155.20,389.74 155.31,389.75 154.77,391.17 C154.31,392.36 154.62,392.65 155.99,392.29 C157.18,391.98 158.24,392.58 158.99,393.98 C159.63,395.18 160.88,397.00 161.76,398.03 C163.27,399.80 163.51,399.81 166.18,398.24 C169.05,396.54 169.16,395.53 167.03,390.50 C165.36,386.55 164.69,384.49 164.84,383.76 C164.92,383.36 162.97,382.52 160.50,381.89 C158.02,381.27 155.99,380.25 155.98,379.63 C155.98,379.01 155.53,379.17 155.00,380.00 C153.61,382.15 153.72,378.89 155.51,364.54 C158.27,342.41 157.03,323.17 151.45,301.45 C146.43,281.91 140.28,269.55 130.21,258.79 L 125.52 253.77 L 134.01 254.15 C144.56,254.62 151.59,257.88 159.52,265.99 C166.75,273.38 168.16,275.32 172.26,283.50 C184.44,307.78 188.57,342.28 182.99,373.06 C181.79,379.68 179.02,385.50 178.98,381.47 C178.97,379.83 178.81,379.75 178.00,381.00 C177.47,381.83 177.02,383.34 177.02,384.37 C177.00,385.87 177.28,386.01 178.40,385.08 C179.60,384.09 179.65,384.52 178.79,387.94 C178.22,390.16 177.41,391.75 176.98,391.48 C176.54,391.22 176.39,391.79 176.65,392.75 C177.13,394.62 173.60,403.51 171.97,404.52 C171.44,404.85 171.00,405.93 171.00,406.92 C171.00,412.29 154.79,430.49 146.31,434.64 C140.78,437.34 129.61,438.87 127.24,437.24 ZM 417.50 497.50 C432.31,494.41 454.00,480.47 454.00,474.04 C454.00,468.38 448.00,466.31 442.50,470.06 C419.13,486.00 389.24,485.93 361.97,469.88 C358.37,467.76 352.86,463.74 349.73,460.95 L 344.03 455.87 L 346.01 451.97 C348.25,447.58 348.59,442.99 346.80,441.20 C344.24,438.64 339.58,439.82 335.45,444.08 C333.28,446.33 330.28,448.80 328.80,449.58 C325.70,451.21 316.35,451.46 312.57,450.02 C308.47,448.47 309.27,452.10 313.94,456.33 C318.51,460.45 324.76,462.45 330.29,461.57 C333.72,461.02 334.42,461.27 336.31,463.72 C340.72,469.46 349.71,478.36 355.50,482.74 C363.36,488.69 377.85,495.67 386.00,497.43 C394.57,499.29 408.79,499.32 417.50,497.50 ZM 475.28 286.60 C477.05,285.83 481.42,282.17 485.00,278.47 C502.49,260.35 515.23,254.46 536.25,254.77 C548.94,254.95 550.15,254.37 545.74,250.22 C539.88,244.72 526.70,241.69 514.53,243.06 C497.04,245.03 478.59,255.53 468.34,269.36 C462.94,276.66 462.57,280.72 466.92,285.08 C470.26,288.41 470.86,288.52 475.28,286.60 ZM 520.68 235.53 C526.84,237.68 532.48,235.54 536.04,229.70 C538.37,225.87 538.66,217.51 536.63,212.65 C533.36,204.83 524.43,198.07 517.32,198.02 C512.27,197.99 509.28,199.61 506.40,203.97 C504.07,207.49 503.79,208.71 504.28,213.38 C505.33,223.59 511.89,232.45 520.68,235.53 ZM 430.46 444.56 C448.43,435.77 451.28,415.70 435.60,408.39 C426.70,404.25 412.86,406.02 406.36,412.13 C403.53,414.79 403.14,417.58 405.75,416.48 C417.41,411.56 428.82,413.21 433.60,420.51 C435.87,423.98 434.74,427.35 429.62,432.32 C422.30,439.44 410.60,441.89 399.66,438.60 C392.04,436.30 392.39,440.12 400.17,444.09 C409.23,448.71 421.59,448.91 430.46,444.56 ZM 641.00 190.91 C639.08,189.79 636.16,187.00 634.52,184.70 C632.07,181.28 631.53,179.54 631.53,175.01 C631.53,167.91 634.05,163.52 640.53,159.25 C646.78,155.14 651.39,155.00 658.19,158.70 C658.60,158.92 658.99,159.16 659.38,159.40 C657.44,158.69 655.71,159.38 653.55,161.55 C649.18,165.91 650.31,173.48 655.78,176.44 C659.54,178.48 666.61,178.47 667.39,176.42 C667.79,175.39 667.96,174.22 667.93,172.99 C668.80,180.44 665.20,188.23 657.28,191.62 C652.56,193.64 645.13,193.32 641.00,190.91 ZM 76.98 93.26 C75.63,91.88 74.13,91.02 73.29,91.18 C70.97,91.63 67.58,96.89 67.07,100.52 C66.86,98.86 66.74,97.11 66.70,95.27 C66.52,87.29 66.78,85.90 69.64,79.88 C73.31,72.13 79.17,65.25 83.72,63.35 C92.86,59.52 101.70,64.13 102.73,73.27 C103.71,81.99 99.14,88.03 91.62,87.96 C89.35,87.95 86.38,87.29 85.00,86.50 C79.22,83.20 73.87,85.95 75.89,91.18 C76.17,91.91 76.54,92.60 76.98,93.26 ZM 607.14 426.15 C607.24,425.54 607.34,424.95 607.45,424.36 C610.85,405.97 611.50,395.34 611.45,359.00 C611.41,328.57 611.11,320.84 609.63,312.50 C608.99,308.92 608.48,305.83 608.09,303.22 C608.85,307.30 609.98,311.26 611.09,312.60 C611.92,313.61 613.91,318.61 619.14,332.88 C620.22,335.84 620.97,339.66 620.80,341.38 C620.51,344.41 620.46,344.37 619.15,340.00 C617.47,334.39 616.64,332.71 615.31,332.27 C613.59,331.70 613.00,337.33 612.91,355.38 C612.86,364.79 612.52,381.05 612.14,391.50 C611.77,401.95 611.79,410.64 612.18,410.82 C613.00,411.18 610.99,416.18 609.63,417.14 C609.00,417.60 607.94,421.72 607.14,426.15 ZM 266.38 586.99 C256.66,584.00 247.53,580.73 239.50,577.31 C235.10,575.44 229.02,573.69 226.00,573.42 C222.98,573.14 218.02,572.34 215.00,571.64 C210.09,570.49 209.45,570.04 209.00,567.42 C208.58,564.99 206.49,563.17 196.40,556.50 C183.62,548.05 182.03,546.86 167.60,535.04 C152.31,522.52 132.55,501.21 127.92,492.25 C127.14,490.74 123.65,484.78 120.16,479.01 C116.67,473.23 112.32,465.55 110.49,461.94 C110.35,461.67 110.22,461.41 110.09,461.16 C111.19,463.09 112.51,465.49 114.17,468.50 C135.14,506.68 162.93,534.82 204.97,560.43 C220.35,569.80 242.36,579.31 266.38,586.99 ZM 536.92 267.08 C540.55,270.70 543.89,270.80 547.92,267.41 C551.24,264.62 551.88,261.06 549.71,257.50 C548.74,255.89 547.20,255.43 541.89,255.16 C535.67,254.83 535.25,254.95 534.65,257.16 C533.45,261.66 534.02,264.18 536.92,267.08 ZM 496.85 585.14 C510.36,579.75 522.67,573.22 533.50,565.64 C553.25,551.83 568.76,536.42 580.47,519.00 C585.89,510.93 599.99,483.27 605.12,470.65 C606.13,468.16 606.91,466.59 607.94,465.37 C606.62,467.09 605.49,469.84 603.22,475.62 C587.74,514.94 572.67,536.17 544.01,559.10 C533.09,567.83 530.33,570.53 530.73,572.06 C531.18,573.79 530.69,574.00 526.10,574.00 C522.02,574.00 519.15,574.91 512.23,578.38 C507.53,580.74 502.36,583.01 496.85,585.14 ZM 410.00 603.04 C424.02,602.32 437.56,600.73 450.49,598.33 C440.31,600.34 430.07,601.81 420.28,602.61 C415.76,602.98 412.30,603.67 412.59,604.14 C413.25,605.22 357.76,605.04 353.00,603.95 C351.08,603.50 342.98,602.41 335.00,601.52 C334.65,601.48 334.31,601.45 333.96,601.41 C357.27,603.98 382.11,604.48 410.00,603.04 ZM 47.46 375.42 C46.84,372.34 46.11,369.77 45.68,369.21 C45.12,368.48 44.67,360.52 44.65,350.71 C44.62,336.29 44.98,331.88 46.90,323.50 C47.76,319.70 48.51,316.52 49.20,313.72 C46.80,324.44 45.94,335.24 45.92,350.32 C45.91,360.42 46.32,368.03 47.46,375.42 ZM 166.72 59.21 C169.74,71.20 169.88,83.60 167.50,95.23 L 167.50 79.50 C167.50,68.22 167.39,63.17 166.72,59.21 ZM 305.67 661.61 C305.67,663.14 303.44,663.52 302.58,662.13 C302.29,661.65 298.39,660.94 293.93,660.55 C289.47,660.17 286.05,659.61 286.34,659.32 C286.63,659.04 291.09,659.12 296.27,659.51 C303.30,660.04 305.67,660.56 305.67,661.61 ZM 343.50 664.50 C344.05,664.69 338.99,664.88 332.25,664.92 C325.51,664.96 320.00,664.60 320.00,664.12 C320.00,663.33 341.06,663.67 343.50,664.50 ZM 453.00 660.00 C451.62,660.44 447.12,660.78 443.00,660.75 L 435.50 660.71 L 441.50 659.96 C444.80,659.55 449.30,659.21 451.50,659.21 C454.91,659.20 455.13,659.32 453.00,660.00 ZM 416.45 664.07 C417.04,664.64 413.39,664.95 406.95,664.86 L 396.50 664.71 L 406.00 663.93 C411.65,663.46 415.88,663.52 416.45,664.07 ZM 237.00 649.10 C238.18,649.76 238.08,649.91 236.50,649.80 C230.13,649.36 227.00,648.78 227.00,648.03 C227.00,647.05 234.81,647.88 237.00,649.10 ZM 549.42 639.13 C549.12,639.61 548.35,639.96 547.69,639.92 C546.84,639.86 546.86,639.70 547.76,639.34 C548.45,639.06 548.77,638.44 548.48,637.97 C547.86,636.97 554.78,635.45 555.71,636.37 C556.04,636.71 554.89,637.27 553.14,637.62 C551.39,637.97 549.72,638.65 549.42,639.13 ZM 525.50 646.00 C525.16,646.55 523.22,646.97 521.19,646.93 C518.22,646.87 517.89,646.69 519.50,646.00 C522.31,644.79 526.25,644.79 525.50,646.00 ZM 472.50 657.00 C472.16,657.55 470.00,657.95 467.69,657.88 C463.73,657.77 463.67,657.72 466.50,657.00 C470.94,655.87 473.20,655.87 472.50,657.00 ZM 222.50 646.00 C223.29,647.28 218.98,647.28 217.00,646.00 C215.86,645.26 216.26,645.03 218.69,645.02 C220.45,645.01 222.16,645.45 222.50,646.00 ZM 192.00 637.00 C193.14,637.74 192.72,637.97 190.25,637.98 C188.46,637.99 187.00,637.55 187.00,637.00 C187.00,635.73 190.03,635.73 192.00,637.00 ZM 514.50 648.00 C514.16,648.55 512.45,648.97 510.69,648.93 C508.00,648.87 507.81,648.72 509.50,648.00 C512.29,646.80 515.24,646.80 514.50,648.00 ZM 484.00 655.00 C484.00,655.55 482.85,656.00 481.44,656.00 C479.99,656.00 479.15,655.57 479.50,655.00 C479.84,654.45 480.99,654.00 482.06,654.00 C483.13,654.00 484.00,654.45 484.00,655.00 ZM 261.50 655.00 C263.33,655.79 263.29,655.86 261.00,655.91 C259.62,655.94 257.83,655.53 257.00,655.00 C255.76,654.20 255.85,654.04 257.50,654.09 C258.60,654.12 260.40,654.53 261.50,655.00 ZM 542.00 641.00 C542.00,641.55 540.76,641.99 539.25,641.98 C537.11,641.97 536.83,641.76 538.00,641.00 C539.96,639.74 542.00,639.74 542.00,641.00 ZM 532.50 644.00 C532.16,644.55 530.98,645.00 529.88,645.00 C528.78,645.00 528.16,644.55 528.50,644.00 C528.84,643.45 530.02,643.00 531.12,643.00 C532.22,643.00 532.84,643.45 532.50,644.00 ZM 211.50 644.00 C210.73,645.24 209.92,645.24 208.00,644.00 C206.84,643.25 207.13,643.03 209.31,643.02 C210.93,643.01 211.86,643.42 211.50,644.00 ZM 139.03 17.54 C140.93,19.04 143.03,20.95 146.31,24.00 C152.37,29.62 156.97,35.49 160.49,42.29 C157.35,36.59 153.24,31.24 148.00,26.00 C143.78,21.78 141.33,19.37 139.03,17.54 ZM 568.50 632.00 C568.16,632.55 567.21,633.00 566.38,633.00 C565.56,633.00 565.16,632.55 565.50,632.00 C565.84,631.45 566.79,631.00 567.62,631.00 C568.44,631.00 568.84,631.45 568.50,632.00 ZM 608.77 613.19 C608.27,614.68 606.00,615.50 606.00,614.19 C606.00,613.65 606.71,612.94 607.58,612.61 C608.56,612.23 609.01,612.46 608.77,613.19 ZM 159.58 393.13 C159.15,392.44 159.07,391.60 159.40,391.27 C160.29,390.37 161.27,391.69 160.79,393.14 C160.45,394.15 160.21,394.15 159.58,393.13 ZM 68.91 108.49 C70.65,112.44 73.39,116.69 76.23,119.60 C72.86,116.35 70.46,112.75 68.91,108.49 ZM 36.04 25.10 C24.93,34.97 15.79,47.88 9.91,62.50 C15.87,47.67 24.85,34.94 36.04,25.10 ZM 469.66 128.34 C475.54,130.91 483.08,134.72 490.00,138.83 C484.13,135.34 475.94,131.18 469.66,128.34 ZM 163.83 107.78 C159.60,118.75 152.93,128.49 144.20,135.76 C152.56,128.79 159.31,119.21 163.74,108.00 ZM 85.69 99.55 C90.67,101.37 96.56,101.63 101.28,99.65 C96.50,101.66 90.70,101.48 85.69,99.55 ZM 60.67 9.70 C61.36,9.41 62.05,9.14 62.75,8.87 C63.99,8.39 66.01,7.58 67.25,7.07 C69.09,6.31 71.32,5.78 76.50,5.03 C71.19,5.80 69.02,6.34 67.00,7.20 C65.62,7.79 63.60,8.60 62.50,9.00 C61.89,9.23 61.27,9.46 60.67,9.70 ZM 104.34 453.68 C103.16,453.11 101.65,452.70 99.50,452.16 C98.04,451.80 96.61,451.37 95.19,450.86 C96.73,451.41 98.30,451.87 99.89,452.24 C101.85,452.70 103.18,453.00 104.34,453.68 ZM 606.00 435.65 C606.00,435.24 606.03,434.68 606.09,434.00 C606.06,434.47 606.04,434.90 606.04,435.29 C606.01,438.17 606.15,438.81 607.22,438.38 C606.16,438.81 606.00,438.23 606.00,435.65 ZM 607.15 294.24 C607.16,292.73 607.37,292.00 607.78,292.00 C607.81,292.00 607.83,292.00 607.85,292.00 C607.42,292.07 607.20,292.92 607.15,294.24 ZM 62.68 420.44 C58.61,413.18 55.11,404.83 52.26,395.50 C52.10,394.98 51.94,394.44 51.78,393.88 C51.94,394.42 52.10,394.95 52.27,395.50 C55.11,404.82 58.61,413.18 62.68,420.44 ZM 80.86 123.60 C82.42,124.80 83.83,125.72 85.29,126.41 C83.82,125.72 82.41,124.80 80.86,123.60 Z" fill="rgb(170,149,209)"/>
<path d="M 404.30 253.91 C400.35,253.45 394.95,252.70 392.31,252.26 L 387.51 251.46 L 386.21 244.98 C376.22,195.35 360.32,162.22 332.51,133.11 C321.94,122.04 306.71,110.19 295.25,104.12 C294.01,103.47 293.00,102.60 293.00,102.20 C293.00,101.01 305.79,95.44 316.03,92.18 C328.68,88.15 343.89,86.00 359.63,86.00 C377.62,86.01 394.43,88.96 409.55,94.71 C403.49,92.44 397.31,90.72 391.11,89.60 L 387.72 88.99 L 390.61 91.23 C392.20,92.45 394.02,93.92 394.65,94.48 C395.28,95.04 397.47,96.85 399.50,98.50 C406.68,104.31 418.05,119.99 425.11,133.81 C438.85,160.71 445.47,198.20 442.89,234.50 C442.35,242.20 441.51,249.70 441.03,251.16 C440.55,252.63 440.45,254.11 440.80,254.46 C440.83,254.49 440.87,254.52 440.91,254.55 L 429.47 254.63 C419.59,254.70 408.26,254.38 404.30,253.91 ZM 79.62 251.65 C51.55,209.14 31.13,164.29 24.35,130.29 C16.59,91.32 25.15,59.06 48.72,38.45 C69.84,19.98 94.36,16.29 117.15,28.14 C138.83,39.42 150.79,65.46 145.58,90.05 C142.24,105.81 132.39,118.89 119.00,125.36 C112.87,128.32 111.85,128.50 101.00,128.50 C93.18,128.50 89.03,128.17 85.29,126.41 C83.83,125.72 82.42,124.80 80.86,123.60 L 80.86 123.60 C79.72,122.71 78.50,121.66 77.12,120.42 C76.82,120.15 76.52,119.87 76.23,119.60 C73.39,116.69 70.65,112.44 68.91,108.49 C68.03,106.06 67.42,103.43 67.07,100.52 C67.58,96.89 70.97,91.63 73.29,91.18 C74.13,91.02 75.63,91.88 76.98,93.26 C78.83,96.02 82.01,98.21 85.69,99.55 C90.70,101.48 96.50,101.66 101.28,99.65 C106.48,97.46 112.67,89.93 114.53,83.53 C116.81,75.69 115.17,65.69 110.62,59.72 C105.11,52.50 100.22,49.78 91.81,49.26 C82.03,48.65 75.39,51.15 67.31,58.46 C49.18,74.87 45.11,105.01 56.03,142.00 C63.66,167.85 78.27,200.79 98.91,238.68 L 103.91 247.85 L 97.70 250.77 C94.29,252.38 90.04,255.06 88.25,256.75 L 85.00 259.80 ZM 275.50 567.51 C253.67,560.43 224.66,547.49 211.50,538.94 C208.75,537.16 204.70,534.53 202.50,533.10 C181.82,519.65 157.90,496.35 143.88,476.00 C138.75,468.55 130.00,453.54 130.00,452.18 C130.00,451.68 133.44,450.72 137.64,450.04 C141.84,449.36 147.34,447.92 149.87,446.84 C151.09,446.32 151.98,445.91 152.92,445.68 C155.86,444.95 159.21,445.90 174.37,450.20 L 174.37 450.20 L 176.00 450.67 C199.99,457.48 223.56,466.75 239.81,475.78 L 250.11 481.50 L 255.42 497.00 C261.52,514.82 270.47,536.61 279.66,555.94 C283.17,563.33 285.92,569.69 285.77,570.07 C285.62,570.44 281.00,569.30 275.50,567.51 ZM 98.24 429.89 C94.35,427.97 86.00,419.81 86.00,417.94 C86.00,417.51 88.22,416.42 90.92,415.53 C106.37,410.39 117.93,380.43 117.98,345.36 C118.01,327.00 114.69,311.39 107.85,297.73 C101.88,285.80 94.86,279.00 88.55,279.00 C84.63,279.00 85.41,276.75 91.67,269.99 C101.57,259.30 108.15,257.72 117.83,263.70 C128.94,270.57 138.59,290.13 143.13,315.00 C145.27,326.70 144.99,364.16 142.68,375.00 C136.78,402.77 125.67,423.82 113.76,429.76 C108.16,432.56 103.71,432.60 98.24,429.89 ZM 79.02 402.37 C74.83,398.83 70.74,390.43 67.91,379.50 C65.82,371.45 65.58,368.23 65.55,349.00 C65.53,328.87 65.70,326.85 68.21,317.23 C69.68,311.57 71.87,304.97 73.08,302.55 C75.08,298.54 81.33,291.12 82.86,290.92 C87.13,290.36 88.62,290.62 91.23,292.41 C94.66,294.76 100.12,304.66 102.59,313.00 C110.02,338.11 107.80,372.06 97.35,392.80 C91.33,404.75 85.49,407.80 79.02,402.37 ZM 488.00 565.24 C488.00,564.82 490.86,561.05 494.36,556.86 C506.63,542.16 519.52,519.56 527.54,498.68 L 531.70 487.83 L 543.60 481.34 C554.45,475.43 564.94,469.87 572.59,465.94 C571.67,466.48 570.78,467.00 569.99,467.50 C567.63,468.99 566.39,470.58 566.25,472.29 C566.13,473.69 564.61,477.91 562.87,481.67 C561.13,485.43 558.57,490.98 557.18,494.00 C552.87,503.40 542.97,519.10 535.36,528.60 C528.55,537.10 515.06,550.29 509.12,554.24 C505.85,556.42 506.64,556.47 511.57,554.41 C518.06,551.69 530.71,542.53 540.37,533.85 C528.64,544.69 514.94,553.82 499.45,561.07 C488.21,566.33 488.00,566.41 488.00,565.24 ZM 607.14 426.15 C607.94,421.72 609.00,417.60 609.63,417.14 C610.89,416.25 612.71,411.89 612.32,410.97 C613.67,410.56 616.00,406.57 616.00,404.51 C616.00,403.39 616.92,400.00 618.05,396.99 C622.38,385.40 623.63,359.12 620.47,346.00 C619.87,343.50 619.22,340.73 618.78,338.77 C618.90,339.16 619.02,339.57 619.15,340.00 C620.46,344.37 620.51,344.41 620.80,341.38 C620.97,339.66 620.22,335.84 619.14,332.88 C618.25,330.46 617.46,328.31 616.75,326.40 C617.44,328.27 618.22,330.37 619.08,332.73 C620.14,335.60 621.00,338.66 621.00,339.53 C621.00,340.41 621.38,340.89 621.84,340.60 C623.06,339.85 626.82,353.01 628.52,364.00 C629.33,369.23 629.99,380.00 630.00,387.95 C630.00,398.52 630.36,402.63 631.46,400.57 C629.95,405.41 628.10,410.12 625.94,414.65 C621.25,424.44 612.74,435.46 607.85,438.08 C607.61,438.21 607.40,438.31 607.22,438.38 L 607.22 438.39 C607.08,438.44 606.95,438.48 606.84,438.50 C607.11,438.30 607.46,437.98 607.93,437.56 C610.05,435.64 609.68,432.80 607.42,433.67 C606.74,433.93 606.18,435.00 606.03,436.19 C606.03,435.92 606.03,435.61 606.04,435.29 C606.04,434.90 606.06,434.47 606.09,434.00 C606.26,432.01 606.65,429.03 607.14,426.15 ZM 126.64 101.50 C128.24,105.67 135.50,99.66 139.60,90.78 C142.19,85.18 142.50,83.42 142.50,74.50 C142.50,65.07 142.31,64.16 139.21,58.50 C133.31,47.74 128.17,46.39 129.74,56.00 C131.09,64.31 130.21,83.35 128.07,91.94 C126.97,96.38 126.32,100.68 126.64,101.50 ZM 93.67 250.33 C94.40,251.07 97.00,251.25 97.00,250.57 C97.00,248.99 94.87,245.00 94.02,245.00 C92.89,245.00 92.61,249.27 93.67,250.33 ZM 635.39 383.52 C636.70,372.85 636.82,358.75 635.66,348.23 C637.25,359.97 637.16,371.94 635.39,383.52 ZM 614.03 333.67 C613.65,337.55 613.15,349.95 612.82,364.32 C612.81,365.07 612.79,365.81 612.77,366.56 C612.84,362.39 612.89,358.50 612.91,355.38 C612.98,342.86 613.28,336.32 614.03,333.67 ZM 615.68 299.42 C615.60,299.33 615.51,299.24 615.43,299.15 C612.06,295.50 608.90,292.47 608.06,292.05 C609.39,292.48 612.44,295.56 615.68,299.42 ZM 446.02 254.51 C447.33,254.03 447.88,252.69 449.14,247.93 L 447.45 254.50 ZM 584.64 460.32 C585.16,461.29 582.66,468.11 579.06,476.33 C582.65,467.80 585.00,461.12 584.64,460.32 ZM 626.18 315.04 C625.21,313.04 624.17,311.13 623.07,309.31 C624.05,310.83 624.86,312.23 625.42,313.40 C625.68,313.94 625.93,314.49 626.18,315.04 ZM 584.56 460.24 C584.57,460.25 584.58,460.25 584.59,460.26 L 584.60 460.26 C584.59,460.26 584.57,460.25 584.56,460.24 Z" fill="rgb(192,215,103)"/>
<path d="M 0.00 334.00 L 0.00 0.00 L 342.50 0.00 L 685.00 0.00 L 685.00 334.00 L 685.00 668.00 L 342.50 668.00 L 0.00 668.00 L 0.00 334.00 ZM 343.50 664.50 C341.06,663.67 320.00,663.33 320.00,664.12 C320.00,664.60 325.51,664.96 332.25,664.92 C338.99,664.88 344.05,664.69 343.50,664.50 ZM 416.45 664.07 C415.88,663.52 411.65,663.46 406.00,663.93 L 396.50 664.71 L 406.95 664.86 C413.39,664.95 417.04,664.64 416.45,664.07 ZM 305.67 661.61 C305.67,660.56 303.30,660.04 296.27,659.51 C291.09,659.12 286.63,659.04 286.34,659.32 C286.05,659.61 289.47,660.17 293.93,660.55 C298.39,660.94 302.29,661.65 302.58,662.13 C303.44,663.52 305.67,663.14 305.67,661.61 ZM 453.00 660.00 C455.13,659.32 454.91,659.20 451.50,659.21 C449.30,659.21 444.80,659.55 441.50,659.96 L 435.50 660.71 L 443.00 660.75 C447.12,660.78 451.62,660.44 453.00,660.00 ZM 472.50 657.00 C473.20,655.87 470.94,655.87 466.50,657.00 C463.67,657.72 463.73,657.77 467.69,657.88 C470.00,657.95 472.16,657.55 472.50,657.00 ZM 261.50 655.00 C260.40,654.53 258.60,654.12 257.50,654.09 C255.85,654.04 255.76,654.20 257.00,655.00 C257.83,655.53 259.62,655.94 261.00,655.91 C263.29,655.86 263.33,655.79 261.50,655.00 ZM 484.00 655.00 C484.00,654.45 483.13,654.00 482.06,654.00 C480.99,654.00 479.84,654.45 479.50,655.00 C479.15,655.57 479.99,656.00 481.44,656.00 C482.85,656.00 484.00,655.55 484.00,655.00 ZM 237.00 649.10 C234.81,647.88 227.00,647.05 227.00,648.03 C227.00,648.78 230.13,649.36 236.50,649.80 C238.08,649.91 238.18,649.76 237.00,649.10 ZM 514.50 648.00 C515.24,646.80 512.29,646.80 509.50,648.00 C507.81,648.72 508.00,648.87 510.69,648.93 C512.45,648.97 514.16,648.55 514.50,648.00 ZM 222.50 646.00 C222.16,645.45 220.45,645.01 218.69,645.02 C216.26,645.03 215.86,645.26 217.00,646.00 C218.98,647.28 223.29,647.28 222.50,646.00 ZM 525.50 646.00 C526.25,644.79 522.31,644.79 519.50,646.00 C517.89,646.69 518.22,646.87 521.19,646.93 C523.22,646.97 525.16,646.55 525.50,646.00 ZM 211.50 644.00 C211.86,643.42 210.93,643.01 209.31,643.02 C207.13,643.03 206.84,643.25 208.00,644.00 C209.92,645.24 210.73,645.24 211.50,644.00 ZM 532.50 644.00 C532.84,643.45 532.22,643.00 531.12,643.00 C530.02,643.00 528.84,643.45 528.50,644.00 C528.16,644.55 528.78,645.00 529.88,645.00 C530.98,645.00 532.16,644.55 532.50,644.00 ZM 542.00 641.00 C542.00,639.74 539.96,639.74 538.00,641.00 C536.83,641.76 537.11,641.97 539.25,641.98 C540.76,641.99 542.00,641.55 542.00,641.00 ZM 549.42 639.13 C549.72,638.65 551.39,637.97 553.14,637.62 C554.89,637.27 556.04,636.71 555.71,636.37 C554.78,635.45 547.86,636.97 548.48,637.97 C548.77,638.44 548.45,639.06 547.76,639.34 C546.86,639.70 546.84,639.86 547.69,639.92 C548.35,639.96 549.12,639.61 549.42,639.13 ZM 192.00 637.00 C190.03,635.73 187.00,635.73 187.00,637.00 C187.00,637.55 188.46,637.99 190.25,637.98 C192.72,637.97 193.14,637.74 192.00,637.00 ZM 568.50 632.00 C568.84,631.45 568.44,631.00 567.62,631.00 C566.79,631.00 565.84,631.45 565.50,632.00 C565.16,632.55 565.56,633.00 566.38,633.00 C567.21,633.00 568.16,632.55 568.50,632.00 ZM 608.77 613.19 C609.01,612.46 608.56,612.23 607.58,612.61 C606.71,612.94 606.00,613.65 606.00,614.19 C606.00,615.50 608.27,614.68 608.77,613.19 ZM 412.59 604.14 C412.30,603.67 415.76,602.98 420.28,602.61 C451.89,600.02 488.16,590.46 512.23,578.38 C519.15,574.91 522.02,574.00 526.10,574.00 C530.69,574.00 531.18,573.79 530.73,572.06 C530.33,570.53 533.09,567.83 544.01,559.10 C572.67,536.17 587.74,514.94 603.22,475.62 C607.33,465.17 607.69,464.63 612.23,462.12 C633.82,450.15 648.16,427.94 655.24,395.50 C658.25,381.72 658.46,347.05 655.62,334.00 C652.13,318.01 647.58,307.13 637.40,290.50 C636.06,288.30 635.16,285.60 635.40,284.50 C635.65,283.40 638.39,273.50 641.51,262.50 C644.62,251.50 647.54,241.15 647.99,239.50 C651.52,226.67 653.32,219.95 654.13,216.62 C655.40,211.36 656.78,209.00 658.57,209.00 C661.38,209.00 670.06,203.94 673.98,200.02 C681.78,192.22 685.55,178.82 683.01,167.87 C680.81,158.36 674.04,149.94 665.50,146.09 C663.85,145.34 661.42,144.23 660.10,143.62 C656.66,142.02 641.92,142.20 638.40,143.89 C636.81,144.65 634.00,146.00 632.16,146.89 C627.80,148.99 622.75,154.63 619.32,161.21 C616.91,165.84 616.57,167.63 616.57,175.50 C616.57,183.25 616.93,185.19 619.18,189.50 C620.61,192.25 622.73,195.36 623.89,196.40 C626.44,198.71 626.55,201.05 624.31,205.30 C623.39,207.06 618.76,217.47 614.04,228.42 C609.32,239.38 604.95,248.52 604.32,248.73 C603.70,248.93 602.64,247.39 601.97,245.30 C597.05,229.94 579.19,194.61 571.72,185.43 C570.85,184.37 567.33,179.90 563.89,175.50 C556.88,166.52 538.25,147.33 531.37,142.00 C528.89,140.07 525.87,137.65 524.68,136.61 C519.82,132.38 494.60,116.56 490.75,115.33 C489.79,115.02 489.00,114.37 489.00,113.88 C489.00,113.40 488.13,113.00 487.06,113.00 C485.99,113.00 484.84,112.55 484.50,112.00 C484.16,111.45 483.06,111.00 482.06,111.00 C481.06,111.00 479.76,110.41 479.16,109.69 C478.56,108.97 475.78,107.76 472.97,106.99 C470.17,106.23 467.65,105.24 467.38,104.80 C467.11,104.36 465.87,104.00 464.64,104.00 C463.37,104.00 460.90,102.44 458.95,100.40 C451.57,92.71 437.19,83.70 422.50,77.57 C420.30,76.65 417.72,75.47 416.76,74.95 C415.81,74.43 414.15,74.00 413.07,74.00 C412.00,74.00 410.84,73.55 410.50,73.00 C410.16,72.45 408.36,72.00 406.50,72.00 C404.64,72.00 402.84,71.55 402.50,71.00 C402.16,70.45 400.59,70.00 399.01,70.00 C397.42,70.00 394.86,69.51 393.32,68.91 C389.24,67.33 371.18,65.56 359.00,65.55 C345.95,65.53 326.00,67.40 323.21,68.89 C322.07,69.50 319.78,70.00 318.12,70.00 C316.47,70.00 314.84,70.45 314.50,71.00 C314.16,71.55 312.59,72.00 311.00,72.00 C309.41,72.00 307.88,72.39 307.58,72.87 C307.29,73.34 305.35,73.96 303.27,74.24 C296.91,75.10 281.20,82.56 270.71,89.69 C266.43,92.61 262.29,95.00 261.52,95.00 C260.75,95.00 259.84,95.45 259.50,96.00 C259.16,96.55 258.07,97.00 257.08,97.00 C256.09,97.00 252.41,98.49 248.89,100.30 C245.38,102.12 240.93,104.23 239.00,104.98 C237.07,105.74 233.13,107.86 230.23,109.68 C227.33,111.51 224.71,113.00 224.41,113.00 C223.65,113.00 207.25,124.67 197.12,132.42 C167.92,154.76 142.02,188.27 124.59,226.25 C122.13,231.61 119.71,236.00 119.21,236.00 C118.71,236.00 117.59,234.31 116.72,232.25 C115.85,230.19 114.00,226.48 112.62,224.00 C107.09,214.13 91.59,181.86 84.99,166.50 C80.89,156.95 79.89,154.17 79.34,150.71 C78.83,147.53 78.98,146.85 80.10,147.30 C80.87,147.61 83.30,148.38 85.50,149.00 C87.70,149.62 90.88,150.55 92.57,151.06 C96.50,152.26 109.43,152.28 113.43,151.09 C129.06,146.45 134.76,143.61 144.20,135.76 C164.89,118.53 173.96,87.50 166.64,58.90 C162.88,44.19 156.79,33.72 146.31,24.00 C138.28,16.54 137.35,15.87 129.00,11.53 C122.69,8.25 122.05,8.00 120.07,8.00 C119.00,8.00 117.87,7.60 117.57,7.11 C116.99,6.17 115.12,5.76 102.78,3.87 C96.91,2.97 92.83,2.95 85.78,3.82 C73.46,5.34 69.94,5.95 67.25,7.07 C66.01,7.58 63.99,8.39 62.75,8.87 C38.99,18.03 20.08,37.22 9.91,62.50 C3.90,77.45 2.56,85.15 2.68,104.00 C2.79,120.44 3.43,125.15 8.38,145.50 C15.83,176.19 32.91,213.72 56.50,251.27 C60.90,258.28 65.18,265.14 66.00,266.52 C67.38,268.84 67.31,269.37 65.12,273.27 C59.20,283.78 58.12,286.04 55.21,294.02 C51.74,303.57 50.18,309.10 46.90,323.50 C44.98,331.88 44.62,336.29 44.65,350.71 C44.67,360.52 45.12,368.48 45.68,369.21 C46.23,369.92 47.25,373.88 47.94,378.00 C48.64,382.12 50.58,390.00 52.26,395.50 C61.80,426.74 78.71,447.02 99.50,452.16 C106.08,453.79 106.60,454.26 110.49,461.94 C112.32,465.55 116.67,473.23 120.16,479.01 C123.65,484.78 127.14,490.74 127.92,492.25 C132.55,501.21 152.31,522.52 167.60,535.04 C182.03,546.86 183.62,548.05 196.40,556.50 C206.49,563.17 208.58,564.99 209.00,567.42 C209.45,570.04 210.09,570.49 215.00,571.64 C218.02,572.34 222.98,573.14 226.00,573.42 C229.02,573.69 235.10,575.44 239.50,577.31 C265.62,588.42 303.34,597.99 335.00,601.52 C342.98,602.41 351.08,603.50 353.00,603.95 C357.76,605.04 413.25,605.22 412.59,604.14 ZM 509.12 554.24 C515.06,550.29 528.55,537.10 535.36,528.60 C542.97,519.10 552.87,503.40 557.18,494.00 C558.57,490.98 561.13,485.43 562.87,481.67 C564.61,477.91 566.13,473.69 566.25,472.29 C566.39,470.58 567.63,468.99 569.99,467.50 C575.14,464.25 584.13,459.80 584.60,460.27 C585.22,460.89 581.74,470.39 576.83,481.50 C568.67,499.97 558.76,515.17 546.62,527.84 C537.06,537.82 519.60,551.05 511.57,554.41 C506.64,556.47 505.85,556.42 509.12,554.24 ZM 571.00 451.44 C571.00,451.06 572.13,445.15 573.52,438.31 C577.80,417.14 579.13,403.04 579.70,372.68 C580.47,331.76 577.99,308.66 569.55,278.00 C568.71,274.98 567.51,270.48 566.87,268.00 C564.90,260.35 556.32,239.62 549.55,226.09 C530.49,188.07 499.06,153.90 466.56,135.89 C462.50,133.64 461.40,132.41 460.41,129.07 C459.38,125.57 459.42,125.00 460.72,125.00 C463.29,125.00 480.00,132.89 490.00,138.83 C533.51,164.65 564.80,204.69 581.58,256.00 C591.77,287.15 595.94,313.35 596.73,351.22 C597.41,383.75 595.44,409.15 590.26,434.76 L 588.59 443.02 L 582.04 446.88 C575.27,450.88 571.00,452.64 571.00,451.44 ZM 606.00 436.76 C606.00,435.36 606.64,433.97 607.42,433.67 C609.68,432.80 610.05,435.64 607.93,437.56 C606.07,439.25 606.00,439.22 606.00,436.76 ZM 611.73 403.25 C611.95,398.99 612.44,381.47 612.82,364.32 C613.21,347.17 613.85,332.82 614.24,332.43 C615.37,331.30 617.73,333.80 618.34,336.78 C618.65,338.28 619.61,342.42 620.47,346.00 C623.63,359.12 622.38,385.40 618.05,396.99 C616.92,400.00 616.00,403.39 616.00,404.51 C616.00,406.68 613.41,411.00 612.11,411.00 C611.68,411.00 611.51,407.51 611.73,403.25 ZM 630.00 387.95 C629.99,380.00 629.33,369.23 628.52,364.00 C626.82,353.01 623.06,339.85 621.84,340.60 C621.38,340.89 621.00,340.41 621.00,339.53 C621.00,338.66 620.14,335.60 619.08,332.73 C613.86,318.48 611.92,313.61 611.09,312.60 C608.49,309.45 605.79,292.00 607.91,292.00 C608.40,292.00 611.79,295.22 615.43,299.15 C624.85,309.32 630.87,322.68 634.71,341.91 C637.25,354.64 636.98,378.48 634.15,390.95 C630.90,405.23 630.00,404.58 630.00,387.95 ZM 482.97 393.78 C473.83,387.67 474.28,375.29 483.78,371.32 C493.64,367.20 503.19,377.90 498.35,387.64 C494.76,394.87 488.40,397.41 482.97,393.78 ZM 515.44 366.17 C506.85,362.15 501.23,351.88 502.63,342.76 C503.47,337.26 505.05,334.24 509.16,330.31 C513.35,326.31 516.79,325.00 523.11,325.00 C528.76,325.00 532.32,326.54 536.14,330.66 C543.26,338.33 544.46,347.80 539.48,356.89 C534.20,366.53 524.34,370.34 515.44,366.17 ZM 616.72 271.77 L 613.06 268.50 L 621.59 247.00 C633.92,215.91 637.22,207.98 638.07,207.46 C639.60,206.51 642.00,208.29 641.98,210.36 C641.96,211.54 641.02,215.20 639.89,218.50 C637.01,226.88 630.06,249.69 628.91,254.50 C628.39,256.70 627.57,259.40 627.08,260.50 C626.59,261.60 625.36,265.17 624.33,268.42 C623.30,271.68 621.99,274.50 621.42,274.69 C620.85,274.88 618.73,273.57 616.72,271.77 ZM 536.92 267.08 C534.02,264.18 533.45,261.66 534.65,257.16 C535.25,254.95 535.67,254.83 541.89,255.16 C547.20,255.43 548.74,255.89 549.71,257.50 C551.88,261.06 551.24,264.62 547.92,267.41 C543.89,270.80 540.55,270.70 536.92,267.08 ZM 440.80 254.46 C440.45,254.11 440.55,252.63 441.03,251.16 C441.51,249.70 442.35,242.20 442.89,234.50 C445.47,198.20 438.85,160.71 425.11,133.81 C418.05,119.99 406.68,104.31 399.50,98.50 C397.47,96.85 395.28,95.04 394.65,94.48 C394.02,93.92 392.20,92.45 390.61,91.23 L 387.72 88.99 L 391.11 89.60 C405.49,92.19 419.82,98.04 432.53,106.49 C440.43,111.75 441.50,112.86 444.09,118.39 C447.71,126.15 453.44,148.50 455.13,161.50 C455.86,167.07 456.40,180.13 456.34,191.00 C456.24,211.89 454.33,227.79 449.77,245.50 C447.54,254.18 447.35,254.51 444.44,254.80 C442.78,254.96 441.14,254.81 440.80,254.46 ZM 93.67 250.33 C92.61,249.27 92.89,245.00 94.02,245.00 C94.87,245.00 97.00,248.99 97.00,250.57 C97.00,251.25 94.40,251.07 93.67,250.33 ZM 520.68 235.53 C511.89,232.45 505.33,223.59 504.28,213.38 C503.79,208.71 504.07,207.49 506.40,203.97 C509.28,199.61 512.27,197.99 517.32,198.02 C524.43,198.07 533.36,204.83 536.63,212.65 C538.66,217.51 538.37,225.87 536.04,229.70 C532.48,235.54 526.84,237.68 520.68,235.53 ZM 655.78 176.44 C650.31,173.48 649.18,165.91 653.55,161.55 C656.51,158.58 658.66,158.37 661.66,160.77 C666.48,164.64 669.14,171.88 667.39,176.42 C666.61,178.47 659.54,178.48 655.78,176.44 ZM 126.64 101.50 C126.32,100.68 126.97,96.38 128.07,91.94 C130.21,83.35 131.09,64.31 129.74,56.00 C128.17,46.39 133.31,47.74 139.21,58.50 C142.31,64.16 142.50,65.07 142.50,74.50 C142.50,83.42 142.19,85.18 139.60,90.78 C135.50,99.66 128.24,105.67 126.64,101.50 Z" fill="rgb(253,254,254)"/>
</g>
</svg>