<?xml version="1.0" standalone="no"?>
<!DOCTYPE svg PUBLIC "-//W3C//DTD SVG 20010904//EN"
 "http://www.w3.org/TR/2001/REC-SVG-20010904/DTD/svg10.dtd">
<svg version="1.0" xmlns="http://www.w3.org/2000/svg"
 width="300.000000pt" height="192.000000pt" viewBox="0 0 300.000000 192.000000"
 preserveAspectRatio="xMidYMid meet">
<metadata>
Created by potrace 1.10, written by Peter Selinger 2001-2011
</metadata>
<g transform="translate(0.000000,192.000000) scale(0.100000,-0.100000)"
fill="#000000" stroke="none">
<path d="M1710 1815 c0 -21 -4 -24 -22 -20 -13 3 -72 11 -131 18 -86 11 -112
11 -126 1 -12 -9 -117 -14 -382 -19 -317 -6 -373 -9 -430 -26 -81 -23 -156
-86 -197 -163 l-27 -51 -3 -398 -3 -399 -97 2 c-126 3 -132 2 -132 -14 0 -14
79 -26 180 -26 l57 0 5 -64 c4 -43 14 -80 31 -110 l26 -46 -202 -1 c-111 -1
-215 -5 -232 -9 -17 -5 75 -6 203 -3 l233 6 31 -37 c17 -21 36 -35 43 -33 6 3
12 -1 12 -9 0 -9 -11 -14 -32 -14 -38 0 -49 -8 -34 -27 8 -9 42 -13 125 -13
64 0 114 -4 114 -9 0 -6 -7 -40 -16 -77 -10 -44 -12 -70 -5 -77 5 -5 36 -7 68
-5 50 4 63 10 96 41 68 65 120 90 185 87 31 -1 132 -2 225 -1 l167 1 0 -61 0
-62 173 6 c200 6 263 20 338 74 69 49 137 74 229 83 73 7 74 7 19 8 -41 2 -56
6 -56 16 0 8 3 15 6 14 22 -2 35 9 76 67 l47 65 366 0 c201 0 363 2 360 5 -3
3 -166 6 -362 7 -196 0 -356 3 -356 7 0 3 7 15 15 25 8 11 15 41 15 68 0 26
11 77 25 114 25 65 25 71 25 370 0 284 -1 304 -19 316 -23 16 -71 132 -64 156
5 21 -30 56 -49 49 -7 -2 -26 2 -42 10 l-28 15 26 27 c15 15 26 39 26 54 0 24
-3 26 -37 25 -21 -1 -52 5 -69 12 -28 12 -36 11 -70 -6 -27 -12 -67 -20 -128
-22 l-89 -4 6 41 c4 35 2 41 -13 41 -15 0 -17 -6 -13 -40 5 -35 3 -39 -11 -34
-10 4 -16 18 -16 35 0 16 -5 29 -11 29 -7 0 -9 -10 -5 -25 5 -18 2 -25 -9 -25
-10 0 -15 10 -15 30 0 17 -4 30 -10 30 -5 0 -10 -11 -10 -25z m-53 -29 c4 -3
-4 -6 -17 -6 -13 0 -20 -3 -17 -6 4 -4 -9 -28 -28 -54 -59 -80 -110 -220 -81
-220 15 0 39 -47 28 -54 -4 -3 -9 -22 -9 -43 -1 -21 1 -31 4 -23 29 73 101
134 183 156 29 8 36 13 20 13 -14 0 -45 -8 -69 -19 -24 -11 -46 -18 -49 -15
-13 12 87 45 138 44 36 0 48 -3 35 -8 -15 -6 -10 -9 24 -14 23 -3 60 -17 82
-32 42 -27 99 -106 99 -137 0 -19 15 -24 25 -8 3 6 2 10 -4 10 -5 0 -15 16
-21 36 -42 126 -215 200 -337 144 -48 -21 -97 -65 -88 -79 3 -5 0 -13 -6 -17
-7 -4 -10 -3 -7 2 9 14 -11 56 -22 49 -6 -4 -10 7 -10 26 0 38 57 160 97 208
l29 33 73 -25 c157 -55 256 -141 305 -267 27 -70 27 -74 10 -87 -10 -7 -13
-13 -7 -13 7 0 15 5 18 10 3 6 18 11 33 11 22 1 23 2 5 6 -14 3 -27 18 -38 45
-18 46 -14 58 12 37 16 -13 17 -12 4 4 -7 9 -19 17 -26 17 -6 0 -20 18 -30 41
-34 75 -166 169 -295 210 -38 13 -47 18 -29 18 15 1 46 -6 70 -15 24 -9 69
-17 99 -17 47 0 48 -1 12 -4 l-42 -4 57 -39 58 -39 39 42 c34 37 36 42 20 49
-17 7 -17 7 2 5 12 -1 31 7 43 17 21 19 22 19 67 -3 45 -21 46 -22 29 -41 -23
-25 -31 -25 -62 0 l-25 20 -53 -48 -52 -47 58 -62 c58 -63 126 -183 114 -202
-3 -6 -16 -11 -27 -11 -29 0 -68 -38 -68 -66 0 -13 -4 -26 -10 -29 -6 -3 -10
5 -10 19 0 42 -60 146 -103 177 -120 87 -270 45 -344 -99 -22 -42 -33 -56 -37
-44 -2 9 -3 -1 0 -23 3 -30 2 -35 -5 -20 -9 18 -10 18 -9 -5 0 -14 3 -36 7
-50 6 -22 8 -20 13 18 14 97 102 219 176 243 19 6 54 9 78 5 100 -13 171 -78
204 -185 20 -62 28 -177 12 -167 -5 3 -7 -8 -4 -23 3 -25 -30 -111 -43 -111
-3 0 1 13 10 30 8 16 15 33 15 37 -1 4 -10 -9 -20 -29 -23 -42 -74 -87 -122
-105 l-33 -13 35 5 c30 4 32 4 12 -5 -15 -6 -47 -6 -93 0 -106 15 -143 39
-175 115 -21 50 -22 158 -3 204 14 33 14 31 11 -41 -4 -82 5 -111 54 -163 16
-16 28 -33 26 -37 -1 -4 6 -4 15 -1 10 4 14 2 10 -4 -5 -7 1 -9 15 -6 19 4 20
3 8 -6 -12 -9 -8 -10 15 -6 17 3 59 7 95 9 36 3 66 5 67 6 2 0 19 24 39 54 26
40 34 60 29 76 -5 16 -4 20 5 15 16 -10 6 93 -14 150 -20 54 -27 65 -58 88
-65 50 -168 50 -236 0 -101 -73 -137 -238 -80 -359 24 -51 43 -69 94 -89 l39
-15 -35 5 c-25 4 -31 2 -20 -5 13 -9 13 -10 -1 -10 -14 0 -61 29 -48 30 4 0
-10 17 -31 38 -42 41 -59 90 -61 167 -1 28 -5 61 -10 75 -5 16 -7 -13 -5 -83
1 -59 -1 -102 -5 -95 -14 22 -10 156 8 283 9 67 14 129 10 138 -4 11 -18 17
-41 17 l-34 0 -1 158 -2 157 106 -6 c59 -4 109 -10 112 -13z m-229 -118 l3
-118 -311 0 c-338 0 -351 -2 -402 -56 -59 -63 -72 -113 -76 -296 l-4 -168
-120 0 -119 0 3 258 c3 257 3 257 30 308 15 28 50 72 78 97 85 76 102 80 450
87 168 4 341 6 385 6 l80 -1 3 -117z m772 93 c0 -6 -5 -13 -11 -16 -6 -4 -8
-13 -5 -20 2 -7 -6 -23 -20 -36 -13 -12 -24 -20 -24 -16 0 4 -16 -10 -35 -31
-55 -60 -40 -22 20 48 30 36 55 68 55 73 0 11 20 9 20 -2z m-220 -41 c-19 -36
-43 -41 -80 -17 l-35 22 60 6 c33 3 61 6 63 7 1 1 -2 -7 -8 -18z m120 -14 c7
-9 9 -16 4 -16 -16 0 -64 36 -58 43 8 8 36 -7 54 -27z m-27 -14 c26 -18 27
-19 9 -35 -10 -9 -32 -18 -48 -18 l-29 -1 30 -8 30 -8 -35 1 c-22 1 -34 7 -32
15 1 6 -6 12 -15 12 -14 0 -12 6 12 29 36 35 42 36 78 13z m111 -44 c20 -8 23
-14 15 -24 -9 -11 -15 -10 -35 2 -13 9 -21 20 -18 25 7 11 8 11 38 -3z m66
-34 c0 -20 -29 -30 -43 -15 -9 10 -8 16 7 26 21 16 36 11 36 -11z m-67 -19
c27 -26 44 -34 58 -30 15 5 22 -1 33 -27 33 -81 34 -78 -33 -78 -36 0 -61 4
-61 11 0 5 6 7 13 3 6 -4 4 2 -5 13 -10 11 -18 25 -18 31 0 7 -16 29 -35 50
-26 30 -32 41 -23 50 19 19 31 15 71 -23z m-110 4 c61 -32 117 -121 87 -139
-20 -12 -37 -2 -51 33 -7 17 -28 50 -46 74 -33 43 -30 53 10 32z m-643 -233
c0 -165 -1 -175 -20 -181 -29 -9 -60 -54 -60 -85 0 -34 33 -78 63 -82 19 -3
22 -10 25 -55 l3 -53 -143 0 c-79 0 -257 -3 -397 -7 l-253 -6 4 224 c4 200 7
230 26 280 12 30 35 68 51 83 54 51 80 55 404 56 l297 0 0 -174z m48 108 c32
-9 27 -24 -8 -24 -20 0 -30 5 -30 15 0 17 4 18 38 9z m777 -33 c-38 -5 -37 -5
20 -11 l60 -5 6 -90 c4 -49 7 -182 6 -295 0 -176 -1 -190 -7 -100 -4 58 -9
191 -11 295 -3 173 -3 181 -9 85 l-6 -105 -2 98 c-1 69 -6 97 -14 98 -7 1 -45
1 -84 -1 -56 -1 -72 1 -77 13 -8 20 11 25 93 24 51 0 56 -2 25 -6z m-755 -16
c0 -10 -10 -15 -30 -15 -20 0 -30 5 -30 15 0 10 10 15 30 15 20 0 30 -5 30
-15z m364 -28 c62 -34 91 -100 91 -204 0 -45 -2 -80 -4 -77 -2 2 -15 -12 -28
-31 -39 -58 -114 -84 -186 -64 -53 14 -112 73 -126 126 -10 37 -12 167 -2 157
2 -2 17 15 33 37 54 74 149 98 222 56z m436 -83 l0 -84 -55 0 c-51 0 -55 2
-55 23 0 22 -18 90 -34 127 -5 12 6 15 69 17 l75 2 0 -85z m-154 49 c-3 -8 1
-24 9 -36 15 -23 19 -42 30 -131 7 -54 6 -56 -20 -66 -28 -11 -97 -13 -130 -4
-17 4 -20 12 -17 54 4 49 4 49 25 35 30 -21 80 -19 108 4 13 11 21 22 18 26
-4 3 -13 0 -20 -7 -19 -18 -95 -17 -113 2 -13 13 -13 20 1 63 17 53 41 71 81
63 15 -3 21 -3 14 0 -6 3 -10 10 -6 15 8 14 26 -1 20 -18z m-656 -38 c0 -9 -9
-15 -25 -15 -16 0 -25 6 -25 15 0 9 9 15 25 15 16 0 25 -6 25 -15z m-13 -126
c-2 -45 -1 -96 3 -115 6 -27 4 -36 -9 -45 -13 -8 -12 -9 6 -4 24 7 43 -9 95
-77 21 -28 39 -39 79 -48 145 -35 296 30 346 147 l13 33 78 -3 77 -2 -3 -35
c-4 -47 -72 -185 -117 -237 -21 -25 -62 -55 -98 -73 -53 -26 -81 -32 -182 -41
-66 -5 -164 -7 -217 -3 l-98 7 0 95 c0 91 1 94 18 79 10 -10 24 -17 30 -17 6
0 13 -4 16 -9 4 -5 -3 -7 -13 -4 -27 7 -43 -27 -39 -85 3 -45 4 -47 33 -48 28
-1 28 -1 3 3 -16 3 -28 11 -28 19 0 11 4 12 19 4 11 -5 43 -10 72 -10 41 0 50
3 41 12 -17 17 -15 73 3 88 11 9 24 10 48 3 29 -8 32 -13 29 -43 -1 -18 -7
-39 -12 -45 -5 -7 -6 -15 -2 -20 4 -4 -5 -5 -20 -3 -16 3 -28 1 -28 -3 0 -10
31 -12 54 -3 9 3 16 16 16 28 0 37 12 43 85 42 109 -2 176 24 245 93 32 31 72
85 89 119 39 78 40 94 1 24 -77 -141 -141 -191 -270 -212 -87 -13 -90 -13 -90
9 0 16 11 19 86 25 95 7 151 29 182 73 28 40 62 110 61 125 0 7 -9 -7 -20 -32
-53 -119 -107 -150 -275 -158 -137 -6 -271 5 -255 21 6 6 11 34 11 61 0 38 -3
47 -11 36 -9 -13 -10 -13 -8 0 3 30 -1 39 -21 45 -12 4 -27 2 -35 -5 -11 -9
-13 13 -14 130 -2 124 0 140 15 140 14 0 15 -11 11 -81z m823 -28 c0 -38 -1
-39 -42 -43 -47 -5 -58 3 -58 44 0 25 3 27 48 31 26 2 48 4 50 5 1 1 2 -16 2
-37z m-870 -36 c0 -32 -3 -35 -29 -35 -24 0 -28 3 -24 20 4 17 38 50 50 50 2
0 3 -16 3 -35z m770 -15 c0 -5 -4 -10 -9 -10 -4 0 -6 -11 -4 -25 5 -21 11 -24
59 -28 l54 -4 -57 1 c-52 1 -58 3 -61 24 -3 20 -9 22 -75 23 l-72 2 67 7 c38
3 71 10 75 13 10 10 23 8 23 -3z m121 -57 c1 -41 6 -139 12 -248 l2 -30 -143
-2 -143 -1 -35 -31 c-20 -18 -29 -31 -20 -31 23 0 30 -38 11 -66 -18 -28 -41
-27 -38 2 5 39 -4 46 -39 28 -54 -28 -127 -44 -230 -51 -87 -5 -98 -4 -98 10
0 10 -4 17 -10 17 -5 0 -8 -10 -6 -22 6 -37 -11 -58 -44 -55 -16 1 -29 7 -28
12 0 6 4 9 8 8 10 -3 1 38 -13 55 -13 16 -22 15 -41 -4 -15 -14 -16 -13 -16 8
0 21 4 23 41 20 44 -5 63 -30 52 -72 -4 -15 -2 -21 4 -17 15 9 21 76 8 81 -5
2 33 5 85 5 52 1 127 3 165 6 57 4 65 3 40 -6 -16 -5 -76 -13 -132 -16 -57 -3
-103 -10 -103 -16 0 -12 132 -1 224 20 50 11 65 18 55 25 -11 8 -9 8 5 4 10
-4 32 2 50 13 48 31 141 130 176 191 30 51 33 53 15 8 -4 -11 -3 -18 4 -18 6
0 11 9 11 20 0 18 7 20 75 20 72 0 75 -1 75 -24 0 -29 -38 -43 -55 -20 -7 11
-23 14 -50 11 l-40 -4 42 -1 c33 -2 43 -6 48 -23 4 -12 3 -25 -2 -29 -12 -12
-143 -19 -143 -8 0 14 -19 -1 -31 -25 -9 -18 -9 -20 2 -9 8 7 42 12 90 12 43
0 81 5 84 10 4 6 10 8 14 6 4 -3 17 2 29 10 20 13 21 24 21 124 l0 110 -54 0
c-39 0 -55 4 -55 13 0 23 11 27 67 27 l53 0 1 -47z m-888 8 c8 -31 -6 -43 -31
-25 -29 20 -28 44 2 44 15 0 26 -7 29 -19z m867 -61 c0 -30 0 -30 -60 -30 -33
0 -60 3 -60 8 0 4 3 17 6 30 6 19 13 22 60 22 53 0 54 0 54 -30z m-1660 -93
l0 -103 -115 1 -115 0 0 53 0 52 48 2 c66 2 70 2 79 11 4 5 -24 7 -62 6 l-70
-3 -3 42 -3 42 120 0 121 0 0 -103z m1280 62 c-19 -16 -39 -29 -44 -29 -5 0 8
15 30 34 21 19 41 32 44 29 3 -3 -11 -18 -30 -34z m-423 22 c-1 -3 7 -23 17
-43 34 -70 -10 -124 -50 -62 -14 20 -15 27 -4 37 10 9 11 9 6 0 -5 -9 -2 -11
10 -6 12 5 15 3 9 -6 -6 -10 -3 -11 14 -1 25 13 19 30 -8 23 -26 -7 -47 31
-29 50 12 14 38 19 35 8z m669 -16 c-6 -25 -6 -25 64 -25 40 0 70 -4 70 -10 0
-16 -137 -13 -143 4 -6 15 2 56 10 56 3 0 2 -11 -1 -25z m-381 -65 c-3 -5 -32
-9 -63 -9 -47 1 -52 3 -27 9 45 12 97 12 90 0z m-355 -54 c0 -13 3 -31 6 -40
6 -14 -33 -16 -390 -16 l-396 0 0 40 0 40 390 0 390 0 0 -24z m80 -38 c16 -10
24 -10 40 0 24 15 40 16 40 2 0 -6 -8 -10 -17 -8 -12 2 -17 -4 -18 -22 0 -20
-5 -25 -25 -25 -19 0 -25 5 -25 22 0 13 -5 22 -10 20 -12 -3 -13 -46 0 -44 5
1 9 -3 8 -10 -2 -8 6 -9 29 -2 18 5 28 5 22 0 -12 -13 -45 -16 -66 -6 -18 7
-23 39 -12 69 7 19 9 19 34 4z m-79 -75 c0 -27 2 -57 4 -69 4 -21 1 -21 -265
-27 -295 -7 -325 -3 -403 50 l-42 28 85 6 85 5 -97 2 c-64 1 -99 -2 -104 -10
-4 -6 -3 -8 3 -5 6 4 19 -3 29 -14 11 -12 42 -33 69 -48 l50 -26 295 0 295 0
3 -47 3 -48 -479 0 c-468 0 -480 0 -505 20 -33 26 -47 75 -47 163 l0 67 510 0
510 0 1 -47z m794 -13 c37 -35 58 -87 51 -129 -4 -25 -2 -31 4 -21 14 22 12
55 -5 98 -11 28 -11 33 -1 20 12 -17 14 -16 25 5 9 16 10 17 5 2 -4 -11 -6
-41 -5 -67 2 -39 -2 -52 -23 -73 -14 -14 -29 -25 -34 -25 -5 0 -9 24 -9 53 0
66 -17 119 -46 143 -22 19 -22 19 -6 -1 9 -11 21 -35 28 -54 13 -40 15 -151 2
-151 -4 0 -6 21 -3 48 6 66 -12 126 -48 155 l-30 25 36 -2 c19 -2 45 -13 59
-26z m94 13 c0 -13 -2 -14 -6 -4 -4 10 -9 6 -17 -12 l-11 -26 -35 29 -35 29
53 1 c43 0 52 -3 51 -17z m-199 -4 c8 -2 21 -11 28 -19 12 -13 13 -13 7 0 -4
8 1 6 9 -5 20 -24 36 -79 36 -127 0 -41 -2 -43 -45 -52 l-30 -7 4 51 c4 69 -6
117 -30 141 -16 16 -23 18 -34 9 -8 -7 -20 -8 -27 -4 -9 6 -6 10 12 15 24 7
34 7 70 -2z m-1727 -10 c-8 -8 -42 -8 -119 -1 l-109 9 120 2 c86 1 116 -2 108
-10z m1713 -45 c16 -37 18 -122 5 -143 -13 -21 -25 48 -18 102 5 31 4 37 -4
22 -8 -17 -9 -16 -6 7 2 15 1 25 -4 23 -4 -3 -10 1 -12 7 -3 7 -4 0 -4 -17 2
-20 -3 -30 -15 -33 -13 -2 -16 2 -13 17 2 12 0 21 -5 21 -4 0 -11 7 -14 16 -5
13 -1 15 18 10 14 -3 28 -1 31 4 10 15 25 2 41 -36z m-146 -20 c0 -13 -30 -34
-48 -34 -11 0 -22 -4 -24 -10 -3 -9 -132 -32 -244 -43 -48 -5 -51 -4 -47 14 5
16 15 19 67 19 33 1 95 7 136 14 41 8 78 12 83 9 4 -2 7 1 7 8 0 7 3 10 6 6 4
-3 13 0 21 8 14 15 43 21 43 9z m-452 -44 c3 -20 0 -22 -22 -18 -14 3 -26 1
-26 -3 0 -5 6 -9 13 -9 8 0 8 -3 -2 -9 -11 -7 -10 -10 5 -14 16 -4 16 -5 -3
-6 -17 -1 -21 4 -20 22 6 57 48 87 55 37z m570 3 c-5 -25 -35 -28 -47 -6 -8
16 -5 19 21 21 23 2 29 -1 26 -15z m-120 -8 c-2 -6 -11 -9 -21 -8 -11 2 -16
-1 -11 -8 4 -8 -1 -9 -17 -4 -19 5 -21 4 -9 -5 12 -9 8 -10 -20 -6 -27 5 -31
3 -20 -5 11 -8 5 -9 -25 -4 -31 4 -37 3 -25 -5 12 -9 6 -10 -25 -6 -28 4 -34
3 -20 -4 11 -5 14 -9 7 -9 -16 -1 -63 -107 -55 -127 3 -8 0 -26 -7 -40 -12
-22 -18 -24 -87 -21 l-73 2 0 53 c0 28 4 52 9 52 5 0 16 3 25 6 12 5 16 0 16
-22 0 -49 44 -77 94 -58 9 3 16 11 16 17 0 7 -4 7 -12 -1 -14 -14 -64 -16 -73
-2 -4 6 5 7 24 4 24 -5 32 -2 46 20 15 22 15 29 4 44 -13 16 -13 16 6 2 19
-14 19 -14 6 3 -11 14 -29 17 -93 17 -57 0 -77 -3 -72 -12 5 -8 0 -9 -17 -5
-13 4 -36 7 -51 7 -24 0 -28 4 -28 29 0 26 3 29 46 35 26 3 70 6 99 6 69 0
270 35 315 54 37 16 53 16 48 1z m80 -43 c15 -46 14 -49 -45 -90 -39 -27 -43
-27 -43 -1 0 20 -4 21 -40 15 -39 -6 -40 -6 -40 24 0 16 -1 33 -2 36 -2 3 21
13 50 23 29 10 58 23 64 29 19 19 42 5 56 -36z m42 4 c0 -8 3 -23 6 -33 5 -15
4 -15 -5 -3 -6 8 -11 10 -11 4 0 -6 10 -19 23 -28 12 -9 17 -15 11 -12 -15 7
-39 -20 -25 -28 5 -3 18 5 29 19 20 25 82 37 82 15 0 -26 -50 -60 -88 -60 -36
0 -39 -2 -60 -51 -11 -28 -25 -48 -30 -45 -6 3 -17 -7 -26 -22 l-17 -27 20 24
c12 13 21 18 21 11 0 -26 38 22 47 58 7 29 14 38 33 40 l25 3 -25 -20 c-14
-11 -20 -21 -14 -21 6 0 19 8 28 19 9 10 29 21 44 24 15 3 36 9 47 13 16 6 15
1 -8 -23 -16 -17 -49 -38 -75 -47 -36 -13 -39 -15 -14 -12 17 3 32 3 32 1 0
-8 -82 -47 -106 -49 -12 -1 -30 -8 -38 -16 -9 -7 -16 -9 -16 -4 0 4 -13 -5
-28 -19 -48 -46 -118 -66 -275 -78 -78 -7 -159 -9 -180 -5 -34 6 -37 10 -37
40 l0 33 128 6 c199 10 299 41 423 133 70 52 75 64 54 147 -6 21 -4 27 9 27 9
0 16 -6 16 -14z m-229 -62 c4 -21 5 -41 3 -43 -8 -9 -114 -13 -114 -5 2 28 38
79 60 85 38 10 44 6 51 -37z m-898 16 l475 0 6 -31 c15 -75 37 -69 -261 -69
-282 0 -463 12 -540 35 -26 8 -49 12 -51 10 -7 -7 49 -26 101 -34 57 -10 61
-13 52 -41 -7 -21 -11 -22 -78 -15 -40 4 -75 12 -79 18 -4 7 -8 9 -8 5 0 -14
-102 87 -117 115 -14 27 -13 28 6 18 13 -7 177 -11 494 -11z m1297 -17 c-20
-26 -56 -52 -72 -53 -17 0 29 61 52 69 40 15 43 13 20 -16z m-231 -64 c-101
-83 -219 -131 -369 -149 -127 -15 -200 -13 -200 5 0 12 16 15 73 17 l72 2 -72
3 c-40 2 -73 7 -73 11 0 4 12 8 28 7 25 0 27 3 30 48 3 49 -6 58 -38 37 -12
-8 -11 -10 8 -10 18 0 22 -6 22 -30 0 -25 -4 -30 -25 -30 -23 0 -25 3 -25 50
l0 50 41 0 41 0 -4 -54 -3 -54 100 -4 c148 -8 224 17 360 115 45 33 61 40 64
28 2 -8 -12 -27 -30 -42z m-355 32 c29 -11 28 -46 -1 -49 -22 -2 -27 6 -24 38
1 11 -3 10 -14 -4 -12 -15 -15 -16 -15 -5 0 29 17 35 54 20z m274 -13 c-4 -31
-72 -75 -138 -89 -30 -7 -63 -16 -74 -22 -14 -7 -17 -6 -10 4 4 7 10 29 14 49
5 35 6 35 65 40 33 3 74 13 90 22 42 24 57 22 53 -4z m-849 -54 c6 -6 -39 -42
-125 -99 -45 -30 -97 -67 -115 -83 -26 -22 -47 -30 -86 -34 -63 -6 -61 -12
-32 127 l21 100 167 -3 c91 -2 168 -6 170 -8z m349 -49 c3 -41 1 -47 -13 -41
-9 3 -105 6 -213 6 l-196 0 44 38 44 37 155 5 c86 3 161 5 166 4 6 0 11 -22
13 -49z m-773 5 l70 -7 -85 -1 c-47 0 -103 3 -125 7 -40 9 -40 9 15 9 30 0 87
-4 125 -8z"/>
<path d="M1508 1783 c17 -2 47 -2 65 0 17 2 3 4 -33 4 -36 0 -50 -2 -32 -4z"/>
<path d="M1681 1671 c-26 -26 -26 -43 -3 -64 23 -21 41 -21 70 -1 38 26 26 63
-25 78 -15 5 -28 1 -42 -13z m59 -33 c0 -19 2 -20 11 -8 9 13 10 13 6 0 -7
-24 -67 -10 -67 15 0 9 9 15 25 15 19 0 25 -5 25 -22z"/>
<path d="M1554 1575 c-8 -21 2 -45 19 -45 8 0 20 7 27 15 10 12 10 18 0 30 -7
8 -19 15 -27 15 -7 0 -16 -7 -19 -15z"/>
<path d="M999 1165 c-14 -8 -32 -29 -39 -46 -12 -28 -11 -36 6 -68 23 -43 55
-61 111 -61 59 0 103 38 103 89 0 79 -103 128 -181 86z m126 -25 c19 -16 19
-74 0 -90 -17 -14 -20 -30 -4 -30 5 0 7 5 3 12 -5 7 -3 8 6 3 9 -6 11 -4 5 5
-6 9 -4 11 5 5 9 -6 11 -4 5 5 -5 9 -4 11 4 6 8 -6 10 -1 6 17 -4 14 -2 28 4
31 7 5 11 -4 11 -22 0 -34 -41 -79 -62 -66 -7 5 -27 9 -45 10 -40 1 -60 17
-79 62 -10 26 -11 38 -3 48 6 8 14 12 18 10 4 -3 13 0 21 5 19 12 86 5 105
-11z"/>
<path d="M1725 1391 c-26 -11 -74 -59 -90 -91 -17 -35 -27 -102 -13 -94 7 5 9
-2 4 -20 -8 -33 1 -69 15 -60 6 3 9 -1 7 -9 -2 -9 2 -16 7 -17 15 -2 45 -32
40 -40 -5 -8 -3 -8 80 -16 50 -4 66 -2 93 16 100 62 94 263 -9 324 -29 17
-100 20 -134 7z m131 -28 c31 -20 69 -96 73 -145 4 -53 -59 -164 -86 -154 -7
3 -13 1 -13 -5 0 -18 -88 -2 -128 23 -20 12 -40 22 -43 21 -4 -1 -6 3 -6 10 1
35 -4 51 -11 39 -12 -18 -3 108 10 141 6 15 26 41 45 57 28 25 42 30 84 30 29
0 60 -7 75 -17z"/>
<path d="M1744 1320 c-56 -22 -79 -93 -49 -150 19 -36 43 -50 88 -50 48 0 87
46 87 101 0 51 -13 75 -50 94 -32 17 -45 18 -76 5z m96 -38 c29 -36 27 -96 -5
-127 -36 -37 -86 -34 -119 6 -14 17 -26 41 -26 54 0 88 99 132 150 67z"/>
<path d="M1734 1255 c-19 -19 -23 -31 -18 -48 10 -35 24 -47 54 -47 55 0 82
73 38 104 -31 22 -45 20 -74 -9z m67 5 c24 -13 25 -62 2 -81 -15 -13 -15 -12
-5 8 16 30 15 40 -8 63 -22 22 -19 25 11 10z m-6 -31 c10 -31 -27 -68 -49 -49
-16 13 -22 51 -9 63 15 15 52 6 58 -14z"/>
<path d="M2200 1349 c-14 -25 11 -69 39 -69 21 0 51 30 51 51 0 41 -71 55 -90
18z m60 -5 c11 -12 10 -18 -3 -31 -27 -28 -52 1 -38 45 3 8 31 -1 41 -14z"/>
<path d="M2065 1326 c-30 -45 18 -101 64 -76 16 8 19 17 14 43 -11 61 -49 77
-78 33z m60 -26 c0 -38 -39 -35 -43 3 -3 25 0 28 20 25 17 -2 23 -9 23 -28z"/>
<path d="M1618 806 c-10 -7 -18 -20 -18 -28 0 -20 26 -41 42 -35 8 4 7 6 -4 6
-9 1 -19 5 -22 9 -3 5 5 8 17 8 17 -1 22 5 22 23 0 29 -14 35 -37 17z"/>
<path d="M2110 867 c-6 -11 -9 -21 -6 -24 3 -3 8 2 12 11 9 24 99 23 113 -1 6
-10 10 -13 11 -8 0 23 -18 33 -67 36 -42 3 -54 1 -63 -14z"/>
<path d="M450 723 c0 -5 44 -7 97 -5 145 4 154 9 21 11 -65 0 -118 -2 -118 -6z"/>
<path d="M1063 673 c20 -2 54 -2 75 0 20 2 3 4 -38 4 -41 0 -58 -2 -37 -4z"/>
<path d="M1548 553 c23 -2 59 -2 80 0 20 2 1 4 -43 4 -44 0 -61 -2 -37 -4z"/>
<path d="M883 391 c-61 -3 -115 -10 -120 -15 -11 -12 218 1 231 14 5 5 8 9 6
8 -3 -1 -55 -4 -117 -7z"/>
<path d="M827 298 c-34 -43 -60 -83 -40 -63 23 24 85 105 80 105 -3 0 -21 -19
-40 -42z"/>
<path d="M2260 411 c0 -5 77 -9 178 -8 161 0 168 1 77 7 -148 11 -255 11 -255
1z"/>
<path d="M316 344 c-55 -7 -104 -15 -110 -18 -29 -12 90 -2 174 14 111 21 78
23 -64 4z"/>
<path d="M2288 353 c17 -2 32 -10 32 -16 0 -9 37 -12 128 -13 99 -1 114 0 67
6 -33 4 -98 13 -145 19 -46 6 -91 10 -100 9 -8 0 0 -3 18 -5z"/>
<path d="M420 323 c-14 -3 -29 -9 -35 -15 -11 -10 54 -1 90 13 18 7 17 8 -5 7
-14 0 -36 -3 -50 -5z"/>
<path d="M2225 320 c-4 -6 10 -10 34 -10 23 0 41 5 41 10 0 6 -15 10 -34 10
-19 0 -38 -4 -41 -10z"/>
<path d="M400 252 c22 -14 282 -41 269 -28 -2 2 -58 9 -124 16 -66 6 -129 13
-140 16 -16 4 -17 3 -5 -4z"/>
<path d="M2400 250 c30 -4 73 -12 95 -19 22 -6 49 -11 60 -10 11 0 -14 9 -55
19 -41 11 -93 19 -115 18 -35 -1 -33 -1 15 -8z"/>
<path d="M1055 219 l-70 -5 93 -2 c89 -2 116 2 70 9 -13 2 -54 1 -93 -2z"/>
<path d="M1191 209 c15 -9 226 -13 217 -4 -3 4 -56 8 -118 10 -69 2 -108 0
-99 -6z"/>
<path d="M250 193 c0 -5 28 -7 62 -5 113 5 125 9 31 10 -51 1 -93 -1 -93 -5z"/>
<path d="M2052 167 c42 -13 83 -28 90 -34 18 -15 139 -65 144 -60 9 9 -223
106 -266 112 -36 4 -29 1 32 -18z"/>
<path d="M1760 101 c8 -4 33 -11 55 -15 25 -4 34 -3 25 3 -8 4 -33 11 -55 15
-25 4 -34 3 -25 -3z"/>
</g>
</svg>
