<?xml version="1.0" standalone="no"?>
<!DOCTYPE svg PUBLIC "-//W3C//DTD SVG 20010904//EN"
 "http://www.w3.org/TR/2001/REC-SVG-20010904/DTD/svg10.dtd">
<svg version="1.0" xmlns="http://www.w3.org/2000/svg"
 width="300.000000pt" height="192.000000pt" viewBox="0 0 300.000000 192.000000"
 preserveAspectRatio="xMidYMid meet">
<metadata>
Created by potrace 1.10, written by Peter Selinger 2001-2011
</metadata>
<g transform="translate(0.000000,192.000000) scale(0.100000,-0.100000)"
fill="#000000" stroke="none">
<path d="M0 1204 l0 -717 46 7 c26 3 129 6 230 6 l183 0 -26 46 c-17 30 -27
67 -31 110 l-5 64 -51 0 c-101 0 -186 12 -186 26 0 16 6 17 133 14 l97 -2 0
379 c0 226 4 393 10 415 16 55 69 128 124 169 81 62 117 66 530 74 304 5 371
9 383 21 11 10 19 12 27 4 7 -5 15 -8 18 -5 5 6 190 -12 219 -21 13 -3 15 1
11 21 -2 15 0 25 7 25 6 0 11 -13 11 -30 0 -20 5 -30 15 -30 11 0 14 7 9 25
-4 15 -2 25 5 25 6 0 11 -13 11 -29 0 -24 14 -41 35 -41 1 0 -1 16 -5 35 -5
21 -4 38 2 41 16 10 23 -5 19 -42 l-3 -34 81 0 c62 0 92 5 127 22 41 19 50 20
78 8 17 -7 47 -13 66 -14 30 -1 35 -5 37 -26 0 -15 -9 -36 -24 -52 l-25 -26
28 -15 c16 -8 35 -12 42 -10 20 8 51 -26 50 -56 0 -40 37 -130 61 -147 21 -15
21 -20 21 -318 0 -299 0 -305 -25 -370 -14 -37 -25 -88 -25 -114 0 -27 -7 -57
-15 -68 -8 -10 -15 -22 -15 -26 0 -3 162 -6 360 -7 l360 0 0 689 0 690 -1500
0 -1500 0 0 -716z"/>
<path d="M1440 1649 l0 -159 35 0 c24 0 38 -5 42 -17 4 -9 -1 -73 -11 -140
-10 -68 -16 -163 -15 -211 3 -80 2 -87 -16 -89 -11 -2 -14 0 -8 3 9 4 11 23 7
62 -3 31 -1 85 4 120 8 61 8 63 -12 60 -12 -2 -20 -8 -19 -15 1 -6 3 -68 4
-138 1 -92 4 -124 12 -116 13 13 41 15 33 2 -3 -5 2 -8 12 -7 12 1 16 -6 14
-24 -2 -19 0 -22 8 -10 7 11 10 1 10 -35 0 -28 -5 -56 -11 -62 -27 -27 307
-29 393 -3 56 16 94 54 128 126 17 35 33 64 35 64 10 0 -30 -87 -57 -127 -42
-62 -77 -78 -193 -89 -98 -9 -108 -12 -91 -29 20 -21 143 -3 212 30 56 27 119
102 160 190 13 28 24 44 24 36 0 -30 -68 -140 -121 -193 -68 -69 -135 -94
-246 -92 l-72 1 -7 -31 c-3 -17 -12 -34 -18 -38 -6 -4 -56 -8 -110 -8 -55 0
-97 -2 -95 -4 11 -10 179 -14 288 -6 108 7 132 13 187 40 72 35 122 87 166
175 32 62 61 153 53 166 -3 4 -39 7 -80 8 l-75 1 -14 -35 c-18 -43 -76 -100
-130 -127 -49 -25 -154 -35 -211 -19 -37 10 -55 24 -126 101 -22 24 -24 36
-26 135 -2 77 1 102 7 85 7 -19 8 -11 5 30 -4 41 -2 50 5 35 8 -16 9 -12 6 20
-1 22 -1 32 1 23 3 -12 15 3 36 44 57 109 152 161 254 138 73 -16 125 -57 158
-125 32 -65 46 -68 17 -3 -44 99 -116 148 -218 148 -100 0 -177 -48 -229 -145
l-16 -30 3 35 c1 19 6 38 11 41 4 3 3 18 -4 32 -10 22 -19 27 -53 29 -37 1
-38 2 -8 5 25 3 32 9 32 26 1 35 44 131 84 185 42 58 39 61 -57 64 -47 1 -53
2 -22 5 22 3 64 2 93 -2 l53 -7 -32 -36 c-33 -38 -95 -161 -99 -197 -4 -34 0
-46 10 -40 12 8 29 -34 23 -55 -4 -13 -3 -13 5 -1 6 8 8 20 5 27 -2 6 11 24
29 38 117 89 266 71 356 -43 22 -28 43 -64 47 -80 l6 -29 26 24 26 24 -17 43
c-65 158 -143 231 -314 294 -42 15 -54 22 -32 19 54 -9 190 -80 246 -130 27
-24 58 -63 69 -85 10 -23 24 -41 30 -41 7 0 19 -8 26 -17 13 -16 12 -17 -4 -4
-26 21 -30 8 -11 -38 13 -33 21 -41 43 -42 23 -1 22 -2 -7 -8 -33 -6 -44 -22
-21 -30 6 -2 9 1 6 6 -4 6 3 8 17 6 13 -3 27 0 31 6 9 15 -34 106 -78 163 -19
25 -34 49 -31 52 2 3 1 4 -3 1 -3 -3 -26 13 -50 35 -24 22 -64 54 -89 70 l-46
29 53 4 54 4 -60 -1 c-33 0 -82 8 -110 17 -56 19 -88 24 -190 32 -38 3 -85 8
-102 10 l-33 4 0 -160z m318 19 c19 -16 14 -45 -10 -62 -29 -20 -47 -20 -70 1
-23 21 -23 38 3 64 20 20 48 19 77 -3z m-158 -93 c10 -12 10 -18 0 -30 -25
-30 -61 -7 -46 30 3 8 12 15 19 15 8 0 20 -7 27 -15z m498 -130 c-3 -3 -9 2
-12 12 -6 14 -5 15 5 6 7 -7 10 -15 7 -18z"/>
<path d="M1703 1663 c-7 -3 -13 -14 -13 -24 0 -14 -4 -18 -12 -13 -9 5 -9 2 1
-9 7 -9 23 -17 35 -16 19 1 19 2 -4 10 -22 7 -21 8 10 6 28 -2 35 2 37 18 3
20 3 20 -6 0 -9 -20 -10 -19 -10 1 -1 23 -17 34 -38 27z"/>
<path d="M1570 1559 c0 -5 5 -7 10 -4 6 3 10 8 10 11 0 2 -4 4 -10 4 -5 0 -10
-5 -10 -11z"/>
<path d="M950 1780 c-339 -7 -357 -11 -445 -91 -96 -88 -99 -103 -103 -401
l-3 -258 119 0 120 0 4 168 c3 147 6 173 26 217 29 63 56 93 107 116 36 17 70
19 348 19 l308 0 -3 118 -3 117 -90 1 c-49 0 -223 -2 -385 -6z"/>
<path d="M2050 1775 c-7 -8 -15 -13 -19 -11 -3 2 -15 -1 -26 -5 -18 -9 -18 -9
3 -5 21 4 21 2 -9 -35 -17 -21 -35 -39 -41 -39 -6 0 -4 8 4 18 29 34 27 37
-20 34 -77 -5 -79 -6 -37 -32 22 -13 43 -28 46 -33 4 -6 29 11 57 37 l49 46
26 -20 c31 -25 39 -25 61 -1 17 19 16 20 -23 40 -48 25 -55 26 -71 6z"/>
<path d="M2153 1727 c-18 -23 -45 -57 -59 -75 -45 -55 -20 -45 47 19 35 33 58
58 52 54 -15 -7 -18 11 -3 20 12 7 13 25 3 25 -5 -1 -23 -20 -40 -43z m27 -10
c0 -2 -12 -14 -27 -28 l-28 -24 24 28 c23 25 31 32 31 24z"/>
<path d="M2046 1733 c-6 -7 42 -43 58 -43 11 0 -13 29 -34 40 -10 5 -20 6 -24
3z"/>
<path d="M1996 1680 l-29 -28 47 -7 c38 -6 51 -4 67 11 19 17 19 18 -8 36 -36
23 -42 22 -77 -12z"/>
<path d="M2127 1632 l-27 -28 23 -22 c13 -13 30 -35 38 -50 27 -55 50 -72 96
-72 49 0 51 6 23 68 -16 35 -23 42 -39 37 -15 -4 -31 5 -63 36 -28 28 -34 37
-16 26 21 -13 28 -14 37 -3 8 10 5 16 -15 24 -32 15 -26 17 -57 -16z"/>
<path d="M1995 1630 c3 -6 20 -10 37 -10 38 0 34 5 -10 13 -21 4 -31 3 -27 -3z"/>
<path d="M2214 1625 c-13 -9 -16 -17 -9 -24 17 -17 57 -18 63 -1 4 13 3 13
-11 2 -13 -11 -15 -10 -10 6 6 26 -10 35 -33 17z"/>
<path d="M2063 1567 c18 -24 39 -58 46 -75 10 -23 20 -32 37 -32 29 0 30 12 4
65 -13 26 -34 49 -59 63 -57 33 -65 27 -28 -21z"/>
<path d="M1665 1541 c-22 -10 -51 -31 -65 -47 l-25 -29 25 21 c44 38 93 57
160 64 l65 7 -60 1 c-39 1 -74 -5 -100 -17z"/>
<path d="M790 1524 c-112 -49 -140 -135 -140 -436 l0 -188 138 0 c76 0 254 3
395 7 l257 6 0 48 c0 44 -3 49 -25 55 -33 8 -65 50 -65 84 0 31 31 76 60 85
19 6 20 16 20 181 l0 174 -302 0 c-248 -1 -309 -4 -338 -16z m323 -355 c75
-39 91 -107 36 -153 -82 -70 -228 11 -189 104 22 52 99 77 153 49z"/>
<path d="M988 1142 c-19 -21 -31 -55 -18 -47 6 3 14 -4 19 -17 13 -35 39 -52
77 -52 19 0 34 -4 34 -8 0 -13 -53 -9 -79 6 -13 7 -30 24 -37 37 -7 13 -13 19
-14 12 0 -7 11 -25 24 -40 21 -24 32 -28 74 -28 61 0 102 31 102 77 0 18 -4
27 -11 22 -6 -3 -8 -17 -4 -31 4 -18 2 -23 -6 -17 -8 5 -9 3 -4 -6 6 -9 4 -11
-5 -5 -9 6 -11 4 -5 -5 6 -9 4 -11 -5 -5 -9 5 -11 4 -6 -3 4 -7 2 -12 -3 -12
-16 0 -13 16 4 30 20 16 19 74 -1 91 -25 21 -119 22 -136 1z m10 -12 c-7 -10
-14 -17 -17 -15 -4 4 18 35 25 35 2 0 -1 -9 -8 -20z m106 -8 c2 -4 -13 -6 -35
-4 -21 2 -39 6 -39 8 0 7 69 4 74 -4z m-26 -69 c-10 -2 -26 -2 -35 0 -10 3 -2
5 17 5 19 0 27 -2 18 -5z"/>
<path d="M1679 1490 c-86 -45 -142 -153 -154 -298 -4 -37 -8 -78 -11 -90 -3
-17 -1 -21 7 -16 8 5 10 -1 7 -19 -3 -15 -2 -24 3 -22 4 3 10 -4 14 -15 3 -11
23 -33 43 -50 20 -17 29 -28 20 -24 -36 13 -16 -8 25 -26 46 -21 122 -26 177
-10 106 29 196 135 185 215 -5 29 -3 36 4 25 19 -27 12 93 -9 161 -11 35 -33
81 -51 102 -65 79 -181 109 -260 67z m198 -81 c43 -32 72 -63 67 -71 -3 -4 -1
-8 5 -8 6 0 8 -7 5 -15 -4 -8 -1 -15 6 -15 7 0 9 -8 5 -21 -5 -16 -4 -19 5
-14 9 6 11 -10 9 -67 -4 -62 -9 -83 -34 -123 -17 -26 -41 -55 -55 -64 -17 -11
-22 -12 -16 -2 7 10 4 11 -15 5 -30 -11 -114 -11 -154 0 -24 6 -27 5 -15 -4
10 -8 11 -10 2 -8 -8 2 -13 7 -12 11 1 5 -17 28 -39 52 -48 52 -55 74 -49 162
4 67 4 67 -10 33 -9 -20 -15 -64 -14 -103 1 -156 106 -244 249 -208 61 16 99
44 134 99 31 49 39 50 15 3 -18 -34 -79 -89 -114 -102 -47 -18 -171 -31 -189
-20 -14 8 -10 10 17 6 l35 -5 -39 15 c-52 20 -70 38 -95 91 -30 63 -37 140
-17 206 18 63 66 134 101 150 13 6 22 15 19 19 -3 5 1 6 9 3 8 -3 21 1 28 8
15 17 130 8 156 -13z m-241 -361 l29 -33 -32 29 c-31 28 -38 36 -30 36 2 0 16
-15 33 -32z m147 -65 c-7 -2 -21 -2 -30 0 -10 3 -4 5 12 5 17 0 24 -2 18 -5z"/>
<path d="M1714 1401 c-22 -10 -53 -34 -68 -52 -16 -19 -25 -27 -21 -19 6 12 5
12 -5 3 -17 -16 -23 -133 -9 -185 14 -54 72 -113 126 -127 67 -18 148 6 179
54 9 14 21 22 27 18 5 -3 7 -1 4 4 -4 6 -4 26 0 44 5 28 7 30 14 14 4 -11 5 2
2 30 -13 121 -43 184 -104 215 -48 25 -92 25 -145 1z m145 -17 c103 -61 109
-262 9 -324 -26 -16 -47 -20 -95 -18 -35 1 -63 6 -63 10 0 5 -5 7 -12 5 -7 -1
-12 4 -13 11 0 6 -3 11 -6 10 -13 -6 -37 24 -32 39 4 10 2 14 -4 10 -15 -10
-23 18 -17 56 5 25 3 29 -6 17 -15 -21 -3 65 15 100 17 32 64 80 90 91 34 13
105 10 134 -7z"/>
<path d="M1743 1378 c-35 -9 -90 -67 -97 -101 -7 -31 -14 -145 -8 -129 2 9 9
4 18 -13 17 -33 17 -38 2 -29 -8 4 -10 3 -5 -2 5 -5 12 -9 15 -9 4 -1 22 -9
41 -19 19 -10 56 -20 82 -23 45 -4 51 -2 84 31 20 20 33 36 30 36 -3 0 1 13
10 30 22 42 19 94 -9 149 -37 71 -91 98 -163 79z m70 -59 c37 -19 57 -52 57
-96 0 -106 -127 -145 -175 -53 -21 41 -19 83 6 114 33 42 73 55 112 35z"/>
<path d="M1743 1305 c-35 -15 -58 -63 -48 -102 20 -81 115 -101 150 -32 21 39
19 82 -5 111 -24 31 -59 39 -97 23z m65 -41 c44 -31 17 -104 -38 -104 -30 0
-44 12 -54 47 -5 17 -1 29 18 48 29 29 43 31 74 9z"/>
<path d="M1790 1250 c23 -23 24 -33 8 -63 -10 -20 -10 -21 5 -8 23 19 22 68
-2 81 -30 15 -33 12 -11 -10z"/>
<path d="M1737 1243 c-13 -12 -7 -50 9 -63 22 -19 59 18 49 49 -6 20 -43 29
-58 14z"/>
<path d="M1899 1033 c-13 -16 -12 -17 4 -4 16 13 21 21 13 21 -2 0 -10 -8 -17
-17z"/>
<path d="M1440 1465 c0 -10 10 -15 30 -15 35 0 40 15 8 24 -34 9 -38 8 -38 -9z"/>
<path d="M2180 1470 c0 -5 5 -10 11 -10 5 0 7 5 4 10 -3 6 -8 10 -11 10 -2 0
-4 -4 -4 -10z"/>
<path d="M2135 1432 c3 -8 5 -15 5 -16 0 -2 43 -1 95 2 l95 5 0 -154 c0 -85 3
-219 7 -298 5 -113 4 -143 -6 -137 -8 6 -11 2 -9 -10 2 -13 -2 -18 -12 -16
-38 9 -225 0 -239 -11 -12 -10 -13 -9 -4 7 9 16 24 20 84 23 90 5 99 8 98 30
0 16 -1 16 -8 -1 -7 -18 -8 -18 -14 -3 -10 27 -93 23 -118 -5 -11 -14 -6 2 12
37 l32 60 75 -3 c56 -3 73 -1 70 9 -3 9 -25 12 -71 10 l-68 -2 6 28 c3 15 -5
2 -19 -29 -13 -31 -38 -76 -54 -101 -42 -61 -151 -160 -169 -153 -8 3 -12 2
-9 -2 3 -5 -9 -9 -27 -9 -133 -2 -336 -18 -325 -24 21 -14 187 -10 262 6 38 8
71 13 74 11 9 -9 -154 -38 -223 -39 -85 -2 -104 -17 -21 -17 77 0 221 27 266
50 20 10 40 16 44 13 12 -12 6 -44 -10 -50 -11 -4 -12 -8 -4 -13 6 -4 -3 -7
-22 -6 -18 1 -37 6 -43 12 -8 9 -29 9 -85 -2 -41 -7 -103 -13 -136 -14 -52 0
-62 -3 -67 -19 -4 -16 1 -18 42 -14 25 2 90 11 143 19 70 11 103 12 117 5 25
-14 34 -14 26 -1 -4 6 4 9 17 7 14 -1 22 3 21 11 -3 11 9 16 29 13 13 -2 29
39 23 59 -4 11 -14 20 -23 20 -13 0 -13 2 3 14 13 9 27 11 42 5 13 -5 25 -4
28 1 4 6 -6 10 -22 10 -25 0 -26 1 -12 16 13 13 44 16 159 17 l144 2 8 30 c11
39 6 597 -5 610 -5 6 -39 9 -76 9 l-66 -2 60 8 c55 7 52 7 -33 6 -72 -1 -91
-4 -87 -14z m28 -639 c-13 -2 -33 -2 -45 0 -13 2 -3 4 22 4 25 0 35 -2 23 -4z
m-173 -119 c-10 -17 -11 -17 -6 -1 3 11 0 20 -9 23 -8 4 -12 11 -9 16 4 6 12
4 21 -5 12 -12 13 -19 3 -33z"/>
<path d="M1440 1415 c0 -22 4 -25 33 -24 l32 1 -30 8 -30 8 28 1 c39 2 37 31
-3 31 -25 0 -30 -4 -30 -25z"/>
<path d="M2314 1315 c0 -55 1 -76 3 -47 2 29 2 74 0 100 -2 26 -3 2 -3 -53z"/>
<path d="M2156 1380 c16 -37 34 -105 34 -127 0 -21 4 -23 55 -23 l55 0 0 83 0
82 -75 0 c-63 0 -74 -2 -69 -15z m122 -22 c18 -18 15 -42 -7 -62 -26 -23 -52
-17 -70 16 -13 22 -13 29 -2 42 16 19 62 21 79 4z"/>
<path d="M2219 1355 c-1 -3 -2 -15 -2 -27 -2 -31 31 -30 52 2 9 13 11 21 4 17
-6 -4 -14 -3 -18 3 -6 10 -34 14 -36 5z m36 -25 c0 -8 -8 -15 -18 -16 -12 -1
-13 -1 -2 3 20 6 19 20 -2 27 -14 4 -14 4 2 3 11 -1 20 -9 20 -17z"/>
<path d="M2120 1380 c-8 -4 -27 -12 -41 -18 -19 -7 -30 -24 -42 -58 -14 -45
-14 -50 0 -66 9 -10 21 -18 27 -17 6 0 1 7 -11 16 -13 8 -23 20 -23 26 0 6 10
1 23 -10 28 -27 78 -33 94 -13 6 8 15 11 20 7 13 -14 -37 -47 -71 -47 -17 0
-41 7 -53 15 -21 14 -21 14 -25 -35 -3 -42 0 -50 17 -54 33 -9 102 -7 130 4
27 10 27 12 20 68 -4 31 -8 66 -9 77 -2 11 -8 30 -14 41 -6 12 -8 25 -4 29 4
5 2 5 -4 2 -7 -4 -18 1 -25 10 -12 15 -12 16 4 10 9 -3 17 -2 17 3 0 14 -13
18 -30 10z m10 -45 c7 -9 14 -29 15 -46 2 -23 -3 -33 -20 -41 -27 -12 -69 6
-61 27 3 8 0 15 -7 18 -18 6 20 57 42 57 10 0 24 -7 31 -15z"/>
<path d="M2077 1317 c-8 -22 17 -51 37 -44 25 10 17 51 -10 55 -12 2 -24 -3
-27 -11z"/>
<path d="M2098 1253 c7 -3 16 -2 19 1 4 3 -2 6 -13 5 -11 0 -14 -3 -6 -6z"/>
<path d="M1453 1373 c9 -2 25 -2 35 0 9 3 1 5 -18 5 -19 0 -27 -2 -17 -5z"/>
<path d="M2026 1358 c-18 -25 -22 -83 -6 -73 6 3 10 16 10 27 0 12 7 29 16 39
9 10 11 19 5 23 -5 4 -17 -4 -25 -16z"/>
<path d="M1453 1353 c9 -2 25 -2 35 0 9 3 1 5 -18 5 -19 0 -27 -2 -17 -5z"/>
<path d="M1440 1325 c0 -9 9 -15 25 -15 16 0 25 6 25 15 0 9 -9 15 -25 15 -16
0 -25 -6 -25 -15z"/>
<path d="M1453 1293 c9 -2 23 -2 30 0 6 3 -1 5 -18 5 -16 0 -22 -2 -12 -5z"/>
<path d="M2088 1213 c6 -2 18 -2 25 0 6 3 1 5 -13 5 -14 0 -19 -2 -12 -5z"/>
<path d="M2200 1175 c0 -32 19 -67 26 -50 2 6 20 9 39 7 35 -4 35 -4 35 36 l0
40 -50 -1 c-49 -2 -50 -3 -50 -32z"/>
<path d="M2308 1165 c-2 -25 0 -45 4 -45 5 0 8 20 8 45 0 25 -2 45 -4 45 -2 0
-6 -20 -8 -45z"/>
<path d="M1384 1158 c-3 -4 -3 -8 0 -8 3 0 1 -11 -4 -25 -9 -23 -7 -25 20 -25
27 0 30 3 30 33 0 26 -4 33 -21 33 -11 0 -23 -4 -25 -8z"/>
<path d="M2160 1118 c-14 -5 -54 -8 -89 -5 -39 3 -58 1 -50 -4 8 -5 47 -9 87
-9 l74 0 -5 -37 c-2 -21 -2 -31 0 -23 3 11 18 15 61 14 l57 -1 -51 4 c-46 3
-52 7 -57 28 -2 14 0 25 4 25 5 0 9 5 9 10 0 12 -7 12 -40 -2z"/>
<path d="M2200 1091 c0 -19 6 -21 55 -21 l54 0 0 -107 c0 -103 -7 -133 -33
-133 -6 0 -2 7 8 15 11 8 17 18 13 21 -11 11 -34 -4 -40 -26 -3 -12 -3 -20 -1
-17 3 3 18 2 32 -2 25 -7 27 -6 31 23 5 42 6 76 3 177 l-2 86 -60 2 c-55 2
-60 0 -60 -18z"/>
<path d="M1377 1071 c-6 -24 10 -41 39 -41 16 0 21 5 19 18 -2 9 -4 23 -4 30
-2 20 -48 14 -54 -7z"/>
<path d="M2186 1018 c-3 -13 -6 -26 -6 -30 0 -5 27 -8 60 -8 60 0 60 0 60 30
0 30 -1 30 -54 30 -47 0 -54 -3 -60 -22z"/>
<path d="M400 977 l0 -43 70 4 c47 3 70 1 70 -7 0 -6 -8 -10 -17 -9 -10 1 -40
0 -68 0 l-50 -2 3 -52 4 -53 114 -3 114 -3 0 105 0 106 -120 0 -120 0 0 -43z"/>
<path d="M1464 996 c-14 -15 -11 -91 5 -110 39 -46 76 7 47 68 -20 43 -38 58
-52 42z m55 -55 c2 -1 -2 -8 -9 -16 -16 -19 -42 -16 -45 5 -2 13 21 18 54 11z"/>
<path d="M1485 930 c-16 -7 -17 -9 -3 -9 9 -1 20 4 23 9 7 11 7 11 -20 0z"/>
<path d="M2142 906 c-11 -24 -10 -24 44 -28 30 -1 54 0 54 5 0 4 -18 7 -41 7
-24 0 -38 4 -34 10 8 14 67 3 81 -15 17 -22 54 -7 54 21 0 23 -3 24 -73 24
-68 0 -75 -2 -85 -24z"/>
<path d="M650 850 l0 -40 393 0 393 0 -1 40 0 40 -392 0 -393 0 0 -40z"/>
<path d="M1452 794 c1 -77 3 -85 5 -34 5 75 15 92 51 83 17 -4 23 -2 18 6 -4
6 -14 11 -23 11 -9 0 -25 7 -35 17 -17 15 -18 12 -16 -83z"/>
<path d="M1476 824 c-20 -52 -1 -75 66 -78 35 -2 36 0 36 32 0 37 -6 38 -11 2
-3 -18 -10 -23 -35 -24 -16 -1 -30 4 -29 9 1 6 -3 9 -8 8 -12 -2 -12 43 0 54
4 5 5 2 0 -6 -5 -10 -4 -12 4 -7 6 4 9 12 6 17 -9 14 -22 11 -29 -7z"/>
<path d="M1532 822 c-38 -18 -39 -42 -2 -52 22 -6 26 -4 28 14 0 11 8 26 17
32 36 27 9 30 -43 6z"/>
<path d="M1602 828 c-15 -15 -16 -70 0 -86 17 -17 -103 -17 -121 1 -11 10 -13
9 -9 -3 4 -12 24 -15 101 -15 54 0 97 3 98 7 0 4 4 22 10 40 5 18 7 40 4 48
-6 20 -66 25 -83 8z m75 -23 c5 -4 2 -4 -6 0 -11 6 -13 4 -8 -8 7 -19 -17 -41
-38 -33 -10 4 -14 2 -9 -5 3 -6 16 -9 29 -7 13 3 22 0 22 -9 0 -9 -7 -11 -21
-7 -47 14 -60 46 -28 70 18 14 46 13 59 -1z"/>
<path d="M1627 794 c-8 -8 1 -24 14 -24 5 0 9 7 9 15 0 15 -12 20 -23 9z"/>
<path d="M1700 820 c0 -11 6 -20 14 -20 9 0 12 7 9 20 -3 11 -9 20 -14 20 -5
0 -9 -9 -9 -20z"/>
<path d="M410 725 c0 -42 6 -90 14 -109 29 -68 8 -66 538 -66 l478 0 0 49 0
50 -277 -6 c-266 -5 -280 -4 -334 16 -30 11 -70 35 -88 53 -20 19 -35 28 -39
21 -9 -14 -272 -28 -272 -14 0 9 87 15 365 24 95 3 98 3 21 -2 -83 -6 -87 -7
-70 -22 27 -23 83 -51 124 -60 19 -5 155 -6 302 -2 264 6 267 6 263 27 -2 12
-4 42 -4 69 l-1 47 -510 0 -510 0 0 -75z m723 -52 c-46 -2 -120 -2 -165 0 -46
1 -9 3 82 3 91 0 128 -2 83 -3z m-286 -59 c-3 -3 -12 -4 -19 -1 -8 3 -5 6 6 6
11 1 17 -2 13 -5z m21 -51 c-10 -2 -26 -2 -35 0 -10 3 -2 5 17 5 19 0 27 -2
18 -5z"/>
<path d="M1798 793 c6 -2 18 -2 25 0 6 3 1 5 -13 5 -14 0 -19 -2 -12 -5z"/>
<path d="M2065 757 c12 -9 14 -16 7 -21 -6 -4 -8 -14 -5 -22 5 -13 8 -13 15
-2 6 8 7 1 4 -22 -5 -27 -4 -30 4 -15 7 15 8 9 3 -22 -7 -54 5 -123 18 -102
16 25 10 113 -10 152 -10 20 -15 37 -10 37 25 0 51 -112 39 -166 l-8 -35 31 7
c48 10 50 13 44 73 -5 60 -25 114 -38 105 -4 -2 -12 4 -18 13 -6 10 -11 15
-11 10 0 -4 -16 0 -36 8 -45 19 -53 19 -29 2z m42 -169 c-2 -13 -4 -3 -4 22 0
25 2 35 4 23 2 -13 2 -33 0 -45z"/>
<path d="M2146 757 c8 -5 12 -13 8 -18 -3 -5 0 -8 7 -7 23 5 44 -54 44 -124 0
-38 3 -68 8 -68 4 0 7 26 7 59 0 58 -13 112 -34 141 -6 9 -1 6 11 -6 25 -27
45 -111 37 -154 -8 -38 8 -39 42 -4 22 21 25 32 22 67 -2 23 2 53 9 67 29 56
22 61 -81 58 -55 -2 -89 -6 -80 -11z m110 -22 l32 -24 7 27 c4 15 9 22 12 15
2 -6 -3 -25 -11 -41 -10 -19 -13 -42 -9 -65 3 -19 1 -42 -3 -50 -6 -10 -9 0
-9 33 0 39 -6 55 -33 89 -38 47 -33 52 14 16z"/>
<path d="M2261 713 c7 -12 15 -20 18 -17 3 2 -3 12 -13 22 -17 16 -18 16 -5
-5z"/>
<path d="M274 738 c77 -7 111 -7 119 1 8 8 -22 11 -108 10 l-120 -2 109 -9z"/>
<path d="M2016 715 c4 -8 14 -15 23 -15 9 0 12 -3 6 -8 -16 -12 -16 -32 0 -32
24 0 29 29 10 50 -21 24 -47 27 -39 5z"/>
<path d="M1450 660 c1 -22 2 -23 11 -7 19 33 54 15 61 -33 2 -14 -2 -25 -9
-25 -6 0 -15 -3 -19 -7 -4 -5 -14 -8 -23 -8 -11 0 -12 3 -5 8 9 5 8 10 -1 19
-10 9 -13 -3 -14 -58 -1 -44 2 -69 9 -69 6 0 8 5 4 11 -5 8 9 9 47 5 39 -5 50
-4 39 3 -11 8 5 11 62 11 81 0 108 -6 108 -22 0 -6 -6 -5 -15 2 -12 10 -20 9
-40 -4 -29 -19 -34 -49 -7 -44 9 2 16 11 16 21 -1 9 3 14 9 10 6 -3 7 -1 3 5
-4 7 -3 12 3 12 19 0 23 -21 7 -45 -18 -28 -47 -32 -66 -10 -14 17 -9 51 8 48
7 -2 12 2 12 8 0 6 -8 9 -17 7 -22 -4 -30 -53 -12 -74 14 -17 60 -19 77 -2 8
8 12 8 12 1 0 -6 -7 -14 -16 -17 -50 -19 -94 9 -94 58 0 22 -4 27 -16 22 -9
-3 -19 -6 -24 -6 -4 0 -10 -24 -12 -54 -3 -53 -3 -54 22 -50 14 3 54 1 89 -5
36 -6 69 -7 75 -2 6 4 36 13 66 20 66 14 134 58 138 89 4 26 -8 28 -51 5 -18
-10 -59 -20 -92 -23 l-60 -5 -6 -38 c-7 -42 -14 -53 -24 -38 -3 6 -1 11 6 11
8 0 10 11 6 35 -4 24 -2 33 5 29 6 -4 8 -3 5 4 -9 13 27 98 45 106 7 3 -3 3
-22 0 -62 -11 -264 -14 -280 -4 -12 8 -11 10 8 10 12 0 22 4 22 9 0 4 16 7 35
4 25 -2 37 1 44 14 12 23 12 35 -1 51 -17 20 -25 14 -20 -17 5 -33 -13 -51
-21 -21 -3 11 -1 18 4 14 11 -7 11 -1 0 29 -8 20 -18 26 -50 29 -38 3 -41 2
-41 -22z"/>
<path d="M1920 665 c-7 -8 -16 -12 -21 -9 -5 3 -9 0 -9 -5 0 -6 11 -11 25 -11
16 0 25 6 25 16 0 8 5 12 10 9 6 -3 10 -1 10 4 0 16 -26 13 -40 -4z"/>
<path d="M1474 646 c-7 -19 1 -32 25 -39 16 -4 18 -1 12 21 -8 30 -28 40 -37
18z"/>
<path d="M2003 636 c-4 -5 -1 -6 6 -2 7 5 18 1 25 -10 15 -19 46 -13 46 10 0
16 -67 19 -77 2z"/>
<path d="M1982 630 c3 -12 -45 -37 -103 -53 -11 -4 -14 -14 -11 -41 4 -36 4
-36 43 -30 37 6 39 5 39 -20 l0 -26 40 28 c38 25 40 29 36 67 l-5 40 14 -35
15 -35 -6 35 c-7 41 -23 74 -31 66 -4 -3 -12 -1 -20 6 -11 9 -13 8 -11 -2z"/>
<path d="M1785 593 c-38 -8 -117 -18 -175 -23 l-105 -9 115 6 c63 3 135 5 160
5 33 -1 41 1 30 9 -11 7 -3 8 25 4 31 -5 37 -4 25 5 -12 9 -7 10 20 6 26 -5
30 -4 15 3 -25 12 -25 12 -110 -6z"/>
<path d="M2055 573 c10 -43 13 -103 4 -103 -4 0 -13 -17 -19 -37 -7 -21 -21
-52 -32 -70 l-19 -32 30 4 c16 2 45 12 63 21 40 22 100 20 288 -6 74 -11 161
-20 192 -21 31 -1 55 -6 52 -11 -5 -8 -80 -4 -196 11 -32 4 -61 5 -64 2 -3 -3
-9 -6 -12 -7 -4 0 -14 -3 -22 -7 -8 -3 -44 -8 -80 -11 -61 -5 -63 -4 -35 9 17
7 24 14 16 14 -8 1 -12 3 -10 5 2 2 27 0 56 -3 37 -5 54 -4 57 5 3 9 -22 14
-92 20 -53 4 -99 7 -102 6 -76 -25 -149 -59 -188 -86 -70 -51 -141 -66 -337
-74 -161 -7 -718 7 -728 18 -3 3 71 6 164 7 93 1 169 -2 169 -5 0 -4 37 -7 82
-7 46 0 98 -3 116 -7 l32 -7 0 60 0 61 -149 -4 c-82 -1 -147 1 -144 5 3 5 -3
4 -14 -1 -11 -6 -25 -7 -33 -2 -8 5 -38 7 -67 5 -55 -4 -103 -30 -180 -98 -28
-25 -46 -32 -93 -35 -31 -2 -60 0 -63 5 -3 5 1 41 9 79 7 38 14 72 14 76 0 5
-51 8 -114 8 -83 0 -117 4 -125 13 -14 18 -4 27 31 27 16 0 39 5 50 11 11 6
18 7 14 1 -3 -6 25 -13 70 -17 79 -7 93 -2 94 35 0 11 -11 17 -38 18 -45 3
-129 30 -138 44 -4 6 -1 8 7 5 105 -43 248 -57 595 -57 l274 0 0 28 c0 15 -3
37 -6 50 l-6 22 -475 0 c-427 0 -476 2 -499 17 l-26 17 30 -50 c28 -45 66 -86
85 -92 4 -1 7 -5 6 -9 -2 -15 -25 -2 -55 32 l-31 35 -104 0 c-57 0 -161 -3
-231 -7 l-128 -6 0 -89 0 -89 52 5 53 5 -52 -11 -53 -11 0 -143 0 -144 848 1
c840 0 847 0 802 19 -25 10 -38 19 -30 19 8 0 34 -8 58 -19 41 -18 71 -19 682
-19 l640 0 0 64 0 64 -77 29 c-43 16 -96 35 -118 42 -22 7 -35 15 -28 17 9 3
106 -31 211 -74 9 -4 12 38 12 191 l0 196 -365 0 -364 0 -30 -42 c-17 -24 -39
-52 -48 -63 -24 -26 -59 -53 -50 -39 9 16 -94 -16 -118 -36 -10 -8 -16 -10
-13 -5 2 6 15 34 28 63 23 50 26 52 62 52 28 0 46 7 63 25 34 33 31 45 -10 45
-19 0 -35 -4 -35 -9 0 -16 -31 -42 -41 -35 -14 8 10 35 25 28 6 -3 1 3 -11 12
-13 9 -23 22 -23 28 0 6 5 4 11 -4 9 -12 10 -12 5 3 -3 10 -6 25 -6 33 0 8 -7
14 -16 14 -13 0 -15 -6 -9 -27z m-870 -93 c-3 -5 -30 -9 -58 -8 l-52 1 55 7
c30 4 56 7 58 8 2 1 0 -2 -3 -8z m55 0 c0 -5 -4 -10 -10 -10 -5 0 -10 5 -10
10 0 6 5 10 10 10 6 0 10 -4 10 -10z m105 5 c-23 -8 -85 -10 -85 -3 0 4 21 8
48 7 26 0 43 -2 37 -4z m-318 -11 c-3 -3 -12 -4 -19 -1 -8 3 -5 6 6 6 11 1 17
-2 13 -5z m1531 -11 c-16 -2 -40 -2 -55 0 -16 2 -3 4 27 4 30 0 43 -2 28 -4z
m185 -10 c-13 -2 -33 -2 -45 0 -13 2 -3 4 22 4 25 0 35 -2 23 -4z m-268 -37
c115 -4 211 -9 214 -11 7 -8 -413 -6 -450 2 -33 6 -33 7 -9 13 14 4 27 6 30 4
3 -1 100 -5 215 -8z m328 7 c-7 -2 -19 -2 -25 0 -7 3 -2 5 12 5 14 0 19 -2 13
-5z m-2650 -10 c-13 -2 -33 -2 -45 0 -13 2 -3 4 22 4 25 0 35 -2 23 -4z m2810
-20 c-7 -2 -21 -2 -30 0 -10 3 -4 5 12 5 17 0 24 -2 18 -5z m-2680 -10 c-7 -2
-19 -2 -25 0 -7 3 -2 5 12 5 14 0 19 -2 13 -5z m-165 -10 c-16 -2 -40 -2 -55
0 -16 2 -3 4 27 4 30 0 43 -2 28 -4z m272 -33 c-52 -10 -138 -21 -190 -24 -84
-4 -89 -4 -40 5 86 16 251 37 290 37 19 0 -8 -8 -60 -18z m2445 10 c30 -6 21
-7 -35 -3 -41 3 -77 7 -79 9 -8 7 74 3 114 -6z m98 -17 c-7 -2 -21 -2 -30 0
-10 3 -4 5 12 5 17 0 24 -2 18 -5z m-2483 -19 c-25 -8 -58 -13 -75 -11 -28 2
-26 4 15 14 25 6 59 11 75 11 26 0 24 -2 -15 -14z m1743 9 c-7 -2 -19 -2 -25
0 -7 3 -2 5 12 5 14 0 19 -2 13 -5z m645 0 c-15 -2 -42 -2 -60 0 -18 2 -6 4
27 4 33 0 48 -2 33 -4z m149 1 c-3 -3 -12 -4 -19 -1 -8 3 -5 6 6 6 11 1 17 -2
13 -5z m-874 -11 c-7 -2 -19 -2 -25 0 -7 3 -2 5 12 5 14 0 19 -2 13 -5z m830
0 c-7 -2 -21 -2 -30 0 -10 3 -4 5 12 5 17 0 24 -2 18 -5z m-60 -20 c-7 -2 -19
-2 -25 0 -7 3 -2 5 12 5 14 0 19 -2 13 -5z m-780 -10 c-7 -2 -21 -2 -30 0 -10
3 -4 5 12 5 17 0 24 -2 18 -5z m-1738 -13 c-4 -6 5 -10 22 -11 15 0 37 -2 48
-4 37 -6 210 -25 228 -25 9 0 17 -4 17 -8 0 -14 -327 24 -348 40 -7 7 -40 9
-80 5 -37 -2 -78 -2 -92 2 -14 4 25 8 93 10 79 1 116 -2 112 -9z m128 3 c-7
-2 -21 -2 -30 0 -10 3 -4 5 12 5 17 0 24 -2 18 -5z m830 0 c-18 -2 -48 -2 -65
0 -18 2 -4 4 32 4 36 0 50 -2 33 -4z m982 -3 c110 -10 352 -56 342 -66 -2 -3
-56 6 -118 20 -63 13 -159 27 -213 31 -55 4 -111 11 -125 15 -36 11 -23 11
114 0z m452 0 c103 0 184 -2 182 -5 -11 -11 -368 -7 -386 5 -17 11 -17 11 0 6
10 -3 102 -6 204 -6z m-1510 -18 c7 -4 -20 -6 -60 -4 -108 5 -122 9 -32 10 44
1 85 -2 92 -6z m56 -9 c-7 -2 -19 -2 -25 0 -7 3 -2 5 12 5 14 0 19 -2 13 -5z
m-350 -10 c-7 -2 -21 -2 -30 0 -10 3 -4 5 12 5 17 0 24 -2 18 -5z m994 1 c-3
-3 -12 -4 -19 -1 -8 3 -5 6 6 6 11 1 17 -2 13 -5z m283 -24 c37 -10 41 -10
-183 10 -88 8 -87 9 28 4 66 -3 136 -9 155 -14z m527 14 c-3 -3 -12 -4 -19 -1
-8 3 -5 6 6 6 11 1 17 -2 13 -5z m-2402 -34 c-60 -4 -144 -7 -185 -7 l-75 1
70 6 c39 4 122 6 185 7 l115 0 -110 -7z m1835 -67 c74 -33 152 -66 172 -72 21
-7 40 -16 43 -21 8 -13 -148 45 -230 84 -67 33 -141 59 -195 70 -14 3 -2 4 25
2 36 -2 89 -20 185 -63z m138 57 c48 -9 195 -70 188 -78 -2 -2 -35 10 -73 26
-37 17 -99 37 -138 45 -77 17 -58 23 23 7z m516 -64 c106 -56 57 -41 -67 22
-48 24 -89 38 -105 36 l-27 -4 25 8 c26 9 74 -9 174 -62z m-2276 57 c-10 -2
-26 -2 -35 0 -10 3 -2 5 17 5 19 0 27 -2 18 -5z m85 0 c-7 -2 -19 -2 -25 0 -7
3 -2 5 12 5 14 0 19 -2 13 -5z m407 -3 c-8 -5 -26 -10 -40 -10 -14 0 -32 5
-40 10 -11 7 1 10 40 10 39 0 51 -3 40 -10z m-622 -7 c-10 -2 -26 -2 -35 0
-10 3 -2 5 17 5 19 0 27 -2 18 -5z m-233 -13 c-3 -5 -12 -10 -18 -10 -7 0 -6
4 3 10 19 12 23 12 15 0z m458 -7 c-7 -2 -19 -2 -25 0 -7 3 -2 5 12 5 14 0 19
-2 13 -5z m1145 0 c-10 -2 -28 -2 -40 0 -13 2 -5 4 17 4 22 1 32 -1 23 -4z
m89 1 c-3 -3 -12 -4 -19 -1 -8 3 -5 6 6 6 11 1 17 -2 13 -5z m-1727 -8 c0 -2
-7 -7 -16 -10 -8 -3 -12 -2 -9 4 6 10 25 14 25 6z m438 -3 c-10 -2 -26 -2 -35
0 -10 3 -2 5 17 5 19 0 27 -2 18 -5z m201 3 c-2 -2 -35 -6 -73 -9 -41 -3 -63
-1 -55 4 13 8 137 13 128 5z m420 -5 c9 -6 -15 -9 -65 -8 -67 0 -72 1 -34 7
67 10 84 11 99 1z m143 -11 c29 -10 73 -24 97 -30 23 -6 41 -13 39 -16 -3 -2
-43 7 -89 22 -46 14 -102 29 -124 33 -38 8 -38 9 -8 10 17 0 55 -8 85 -19z
m391 -10 c108 -28 173 -48 160 -49 -7 -1 -65 13 -130 30 -87 22 -142 31 -208
31 -87 1 -88 1 -30 8 71 8 111 4 208 -20z m184 24 c-3 -3 -12 -4 -19 -1 -8 3
-5 6 6 6 11 1 17 -2 13 -5z m920 0 c-3 -3 -12 -4 -19 -1 -8 3 -5 6 6 6 11 1
17 -2 13 -5z m-2462 -25 c-93 -19 -126 -20 -53 -1 65 17 80 20 113 20 17 0
-10 -8 -60 -19z m564 5 c8 -7 -104 -2 -129 6 -14 4 8 5 50 2 41 -2 77 -6 79
-8z m1051 0 c0 -2 -28 -3 -62 -2 -61 1 -61 1 -18 7 42 6 80 3 80 -5z m887 10
c-3 -3 -12 -4 -19 -1 -8 3 -5 6 6 6 11 1 17 -2 13 -5z m-2257 -13 c-8 -5 -31
-11 -50 -15 l-35 -6 35 14 c41 17 75 21 50 7z m408 2 c-10 -2 -26 -2 -35 0
-10 3 -2 5 17 5 19 0 27 -2 18 -5z m1497 -3 c3 -6 -1 -7 -9 -4 -18 7 -21 14
-7 14 6 0 13 -4 16 -10z m42 -6 c-3 -3 -12 -4 -19 -1 -8 3 -5 6 6 6 11 1 17
-2 13 -5z m78 -14 c27 -7 27 -8 5 -8 -14 0 -36 4 -50 8 -20 6 -21 8 -5 8 11 0
34 -4 50 -8z m-1715 -10 c-8 -5 -24 -10 -35 -10 -12 0 -26 -5 -32 -11 -8 -8
-16 -8 -30 1 -16 10 -16 11 0 6 9 -3 17 -1 17 4 0 5 17 11 38 13 20 2 42 4 47
5 6 1 3 -3 -5 -8z m163 3 c-7 -2 -19 -2 -25 0 -7 3 -2 5 12 5 14 0 19 -2 13
-5z m1594 -69 c-5 -5 -137 64 -137 72 0 2 32 -12 71 -32 39 -19 69 -37 66 -40z
m23 66 c0 -5 -8 -10 -17 -10 -15 0 -16 2 -3 10 19 12 20 12 20 0z m-2695 -10
c-3 -5 -11 -10 -16 -10 -6 0 -7 5 -4 10 3 6 11 10 16 10 6 0 7 -4 4 -10z m338
3 c-7 -2 -19 -2 -25 0 -7 3 -2 5 12 5 14 0 19 -2 13 -5z m807 -3 c18 -12 2
-12 -25 0 -13 6 -15 9 -5 9 8 0 22 -4 30 -9z m1625 -10 c3 -5 -1 -10 -9 -10
-9 0 -16 5 -16 10 0 6 4 10 9 10 6 0 13 -4 16 -10z m-2580 -21 c-33 -10 -67
-18 -75 -18 -8 0 2 6 23 12 22 7 37 14 34 17 -3 3 14 6 36 6 42 1 42 1 -18
-17z m259 13 c2 -4 -3 -8 -12 -8 -9 -1 -26 -4 -37 -8 -13 -5 -11 -2 5 8 29 18
37 19 44 8z m1092 -10 c-10 -2 -22 0 -28 6 -6 6 0 7 19 4 21 -5 23 -7 9 -10z
m394 8 c18 -12 2 -12 -25 0 -13 6 -15 9 -5 9 8 0 22 -4 30 -9z m183 -1 c59
-16 40 -18 -28 -4 -33 7 -49 14 -35 14 14 1 42 -4 63 -10z m-1016 -5 c-3 -3
-12 -4 -19 -1 -8 3 -5 6 6 6 11 1 17 -2 13 -5z m83 -24 c8 -5 11 -10 5 -10 -5
0 -17 5 -25 10 -8 5 -10 10 -5 10 6 0 17 -5 25 -10z m905 0 c13 -6 15 -9 5 -9
-8 0 -22 4 -30 9 -18 12 -2 12 25 0z m-2002 -7 c-7 -2 -19 -2 -25 0 -7 3 -2 5
12 5 14 0 19 -2 13 -5z"/>
<path d="M1802 563 c-24 -5 -45 -31 -57 -72 -7 -23 -6 -24 49 -19 31 3 58 7
60 9 8 8 -9 82 -19 84 -6 1 -20 0 -33 -2z"/>
<path d="M2230 539 c-23 -8 -69 -69 -52 -69 16 1 52 27 72 53 23 29 20 31 -20
16z"/>
<path d="M2030 504 c-13 -16 -13 -17 0 -9 9 5 12 4 7 -1 -5 -5 -16 -9 -25 -9
-9 0 -16 -6 -14 -13 1 -8 -2 -11 -7 -7 -6 3 -33 -10 -61 -29 -94 -65 -146 -78
-318 -79 -83 -1 -152 1 -152 6 0 4 9 7 20 7 16 0 20 7 20 30 0 24 -4 30 -21
30 -11 0 -17 5 -14 10 3 6 15 10 26 10 16 0 19 -7 19 -46 0 -27 4 -43 10 -39
6 3 10 30 10 58 l0 53 -40 -4 -40 -4 0 -66 0 -65 118 5 c76 4 98 3 62 -2 -30
-4 -83 -8 -117 -9 -52 -1 -63 -4 -63 -18 0 -14 12 -15 113 -9 191 11 301 44
409 122 57 40 75 40 27 0 -99 -84 -279 -136 -468 -136 l-81 0 0 -42 0 -41 145
7 c218 10 286 26 347 83 14 14 29 25 32 24 3 -1 6 1 6 4 0 3 11 27 25 55 14
27 27 57 29 67 1 10 6 26 10 35 12 28 2 43 -14 22z"/>
<path d="M2167 460 c-26 -9 -57 -26 -70 -38 -13 -12 -29 -22 -35 -22 -7 0 -12
-5 -12 -11 0 -6 6 -9 14 -6 8 3 32 11 54 18 23 6 55 27 73 45 18 19 31 33 28
33 -2 -1 -25 -9 -52 -19z"/>
<path d="M2063 435 c-9 -24 0 -25 27 -5 l25 20 -23 0 c-12 0 -25 -7 -29 -15z"/>
<path d="M732 341 c-32 -148 -32 -145 29 -138 39 5 61 15 97 45 26 21 79 59
117 85 39 25 84 57 100 71 l30 26 -140 0 c-77 0 -156 3 -176 6 l-36 6 -21
-101z m269 48 c-14 -5 -73 -12 -132 -16 -87 -5 -109 -9 -112 -22 -4 -14 -5
-14 -6 0 -2 30 24 38 130 42 57 1 113 3 124 4 16 1 15 0 -4 -8z m-143 -70
c-51 -64 -90 -106 -81 -87 10 20 102 128 109 128 3 0 -10 -18 -28 -41z m42 7
c0 -2 -7 -7 -16 -10 -8 -3 -12 -2 -9 4 6 10 25 14 25 6z"/>
<path d="M1065 383 l-47 -43 195 0 c108 0 202 -3 211 -6 13 -5 16 2 16 42 l0
49 -164 0 -164 0 -47 -42z m193 0 c-10 -2 -28 -2 -40 0 -13 2 -5 4 17 4 22 1
32 -1 23 -4z"/>
<path d="M530 379 c25 -4 81 -7 125 -7 l80 1 -65 7 c-36 4 -92 8 -125 8 l-60
-1 45 -8z"/>
</g>
</svg>
